<?xml version="1.0" standalone="no"?>
<!DOCTYPE svg PUBLIC "-//W3C//DTD SVG 1.1//EN" "http://www.w3.org/Graphics/SVG/1.1/DTD/svg11.dtd" >
<svg xmlns="http://www.w3.org/2000/svg" xmlns:xlink="http://www.w3.org/1999/xlink" version="1.1">
<metadata></metadata>
<defs>
<font id="serithairegular" horiz-adv-x="0" >
<font-face units-per-em="2048" ascent="1638" descent="-410" />
<missing-glyph horiz-adv-x="524" />
<glyph unicode="&#x3b;&#x3b;For&#x20;Education&#x20;Used&#x20;Only&#x3b;&#x3b;" horiz-adv-x="1542" d="M115 709q0 207 83.5 372.5t233.5 259t340 93.5t339.5 -93.5t232.5 -259t83 -372.5t-83 -372.5t-232.5 -259t-339.5 -93.5t-340 93.5t-233.5 259t-83.5 372.5zM195 709q0 -184 72 -331t204 -231t301 -84t301.5 84t204.5 231t72 331t-72 331.5t-204.5 231.5t-301.5 84 t-301 -84t-204 -231.5t-72 -331.5zM457 709q0 185 89 297t236 112q109 0 185.5 -62.5t109.5 -172.5h-98q-59 149 -197 149q-104 0 -164.5 -87.5t-60.5 -235.5t60.5 -235t164.5 -87q140 0 197 150h98q-33 -111 -110 -174.5t-185 -63.5q-147 0 -236 112.5t-89 297.5z" />
<glyph unicode="&#x3b;&#x3b;Registered&#x3b;&#x3b;" horiz-adv-x="1542" d="M115 709q0 207 83.5 372.5t233.5 259t340 93.5t339.5 -93.5t232.5 -259t83 -372.5t-83 -372.5t-232.5 -259t-339.5 -93.5t-340 93.5t-233.5 259t-83.5 372.5zM195 709q0 -184 72 -331t204 -231t301 -84t301.5 84t204.5 231t72 331t-72 331.5t-204.5 231.5t-301.5 84 t-301 -84t-204 -231.5t-72 -331.5zM528 311v791h308q93 0 152 -59t59 -158q0 -72 -32.5 -124t-89.5 -76l169 -374h-107l-161 357h-198l1 -357h-101zM627 754h182q62 0 100.5 35t38.5 96q0 62 -38 97.5t-101 35.5h-182v-264z" />
<glyph unicode="&#x3b;&#x3b;Multiply&#x3b;&#x3b;" horiz-adv-x="890" d="M109 455l258 256l-258 258l86 84l256 -256l258 256l84 -84l-256 -258l256 -256l-84 -84l-258 256l-256 -256z" />
<glyph unicode="&#x3b;&#x3b;Divide&#x3b;&#x3b;" horiz-adv-x="1075" d="M115 649v121h846v-121h-846zM459 389q0 32 24 55t56 23t54.5 -23t22.5 -55t-22.5 -55t-54.5 -23t-56 23t-24 55zM459 1028q0 32 24 56t56 24t54.5 -23.5t22.5 -56.5q0 -32 -22.5 -55t-54.5 -23t-56 23t-24 55z" />
<glyph unicode="&#x2018;&#x2018;" horiz-adv-x="761" d="M115 936l129 481h108l-84 -481h-153zM412 936l129 481h110l-84 -481h-155z" />
<glyph unicode="&#x2019;&#x2019;" horiz-adv-x="761" d="M115 936l82 481h155l-131 -481h-106zM412 936l84 481h155l-129 -481h-110z" />
<glyph unicode="&#x3b;&#x3b;Trademark&#x3b;&#x3b;" horiz-adv-x="1017" d="M115 1346v71h323v-71h-121v-406h-81v406h-121zM496 940v477h77l127 -237l129 237h76v-477h-82v313l-102 -186h-39l-104 186v-313h-82z" />
<glyph unicode="&#xe24;&#xe32;" horiz-adv-x="1736" d="M96 993q6 12 17.5 31t53.5 67.5t89.5 86t126.5 68t164 30.5q263 0 350 -170q38 84 122.5 127t192.5 43q160 0 263.5 -87t103.5 -249v-1413h-156v1413q0 103 -63 154t-160 51q-96 0 -158.5 -51t-62.5 -154v-1413h-156v1388q0 109 -64 169.5t-200 60.5q-163 0 -306 -152 l62 -94v-704q0 -64 64 -64h63v-131h-110q-81 0 -126.5 41.5t-45.5 122.5v733z" />
<glyph unicode="&#xe26;&#xe32;" horiz-adv-x="1740" d="M37 0v131h65q62 0 62 64v702l-62 96q6 12 17.5 31t53 67.5t89 86t126 68t163.5 30.5q263 0 350 -170q38 84 124 127t194 43q160 0 263 -87t103 -249v-1413h-155v1413q0 103 -63.5 154t-160.5 51t-160 -51t-63 -154v-1413h-156v1388q0 230 -262 230q-163 0 -307 -153 l61 -93v-735q0 -81 -45.5 -122.5t-126.5 -41.5h-110z" />
<glyph unicode="&#xd;" horiz-adv-x="682" />
<glyph unicode=" "  horiz-adv-x="524" />
<glyph unicode="&#x09;" horiz-adv-x="524" />
<glyph unicode="&#xa0;" horiz-adv-x="524" />
<glyph unicode="!" horiz-adv-x="417" d="M115 80q0 40 28 68t68 28t68 -28t28 -68t-28 -68t-68 -28t-68 28t-28 68zM135 1417h150l-21 -1093h-108z" />
<glyph unicode="&#x22;" horiz-adv-x="722" d="M115 1417h151l-20 -481h-111zM465 1417h149l-20 -481h-109z" />
<glyph unicode="#" horiz-adv-x="1679" d="M115 426v127h357l68 313h-268v125h295l92 426h142l-93 -426h395l93 426h141l-92 -426h328v-125h-355l-68 -313h265v-127h-293l-92 -426h-143l93 426h-394l-92 -426h-142l93 426h-330zM613 553h394l69 313h-395z" />
<glyph unicode="$" horiz-adv-x="1212" d="M115 1028q0 177 125.5 287.5t328.5 117.5v142h80v-143q191 -14 307.5 -122t116.5 -276h-162q0 105 -70.5 174t-191.5 83v-500h35q194 0 307 -105.5t113 -296.5q0 -177 -126.5 -288.5t-328.5 -116.5v-142h-80v144q-187 16 -304.5 124t-117.5 275h160q0 -105 70.5 -175 t191.5 -84v501h-37q-194 0 -305.5 105t-111.5 296zM276 1040q0 -121 71.5 -185t201.5 -64h20v503q-133 -6 -213 -75.5t-80 -178.5zM649 123q134 6 213.5 75.5t79.5 178.5q0 120 -72.5 185t-201.5 65h-19v-504z" />
<glyph unicode="%" horiz-adv-x="1632" d="M115 1024q0 185 82.5 297.5t220.5 112.5t221.5 -112.5t83.5 -297.5t-83.5 -297.5t-221.5 -112.5t-220.5 112.5t-82.5 297.5zM221 1024q0 -147 52.5 -233t144.5 -86t146 86.5t54 232.5t-54 232.5t-146 86.5t-144.5 -86t-52.5 -233zM397 -2l701 1417h135l-701 -1417h-135z M913 393q0 185 84 297.5t222 112.5t221.5 -112.5t83.5 -297.5t-83.5 -297t-221.5 -112t-222 112.5t-84 296.5zM1020 393q0 -147 53.5 -233t145.5 -86t146 86.5t54 232.5q0 147 -54 234.5t-146 87.5t-145.5 -87.5t-53.5 -234.5z" />
<glyph unicode="&#x26;" horiz-adv-x="1294" d="M115 375q0 156 96.5 267t250.5 123l-54 73q-91 128 -91 239q0 164 96.5 260.5t250.5 96.5q151 0 248.5 -101t97.5 -258v-53h-142v53q0 95 -54.5 155t-149.5 60q-94 0 -149.5 -60t-55.5 -155q0 -73 61 -151l328 -439l176 303h188q-147 -230 -271 -427l269 -361h-182 l-170 229q-19 -31 -22 -36q-64 -109 -143 -159t-197 -50q-170 0 -275.5 114t-105.5 277zM260 375q0 -108 64.5 -177t171.5 -69q80 0 132.5 34.5t96.5 117.5q33 53 43 70l-201 272h-71q-103 0 -169.5 -69t-66.5 -179z" />
<glyph unicode="'" horiz-adv-x="376" d="M115 1417h151l-20 -481h-111z" />
<glyph unicode="(" horiz-adv-x="706" d="M115 700q0 168 19.5 325t51 272.5t69.5 216.5t76 168t69.5 115.5t51.5 70.5l19 22h168q-8 -8 -21.5 -22.5t-52 -68.5t-74 -117t-78.5 -166.5t-74 -217.5t-52 -271.5t-21 -326.5t20.5 -325t53.5 -270t73 -213t79.5 -164.5t72.5 -112t53 -67.5l21 -21h-168q-7 7 -20 21.5 t-50 67t-70.5 114t-74.5 163.5t-70.5 214.5t-50 268.5t-20.5 324z" />
<glyph unicode=")" horiz-adv-x="702" d="M72 -473q8 7 21.5 21.5t52 66.5t74 113t78.5 163t74 214.5t52.5 269t21.5 325.5t-20.5 325.5t-53.5 272.5t-73 217t-80 168t-73 115t-54 70l-20 22h170q7 -8 20 -22.5t49.5 -69t70 -117t74.5 -166.5t70.5 -218t49.5 -271.5t20 -325.5t-19.5 -323.5t-50.5 -269.5 t-69 -213.5t-76 -165t-69 -112.5t-50 -68l-20 -21h-170z" />
<glyph unicode="*" horiz-adv-x="747" d="M109 1141v80h198l-100 172l69 39l99 -170l98 170l70 -39l-99 -172h197v-80h-197l99 -172l-70 -39l-98 172l-99 -172l-69 39l100 172h-198z" />
<glyph unicode="+" horiz-adv-x="1075" d="M115 649v121h364v363h119v-363h363v-121h-363v-364h-119v364h-364z" />
<glyph unicode="," horiz-adv-x="462" d="M115 -168l84 483h153l-129 -483h-108z" />
<glyph unicode="-" horiz-adv-x="1015" d="M115 492v120h794v-120h-794z" />
<glyph unicode="." horiz-adv-x="417" d="M115 80q0 40 28 68t68 28t68 -28t28 -68t-28 -68t-68 -28t-68 28t-28 68z" />
<glyph unicode="/" horiz-adv-x="761" d="M113 0l385 1417h155l-385 -1417h-155z" />
<glyph unicode="0" horiz-adv-x="1306" d="M115 709q0 326 147 525.5t391 199.5t391.5 -199.5t147.5 -525.5t-147.5 -525.5t-391.5 -199.5t-391 199.5t-147 525.5zM276 709q0 -269 101.5 -427.5t275.5 -158.5t276.5 158.5t102.5 427.5t-102.5 428t-276.5 159t-275.5 -159t-101.5 -428z" />
<glyph unicode="1" horiz-adv-x="518" d="M31 1280v137h329v-1417h-161v1280h-168z" />
<glyph unicode="2" horiz-adv-x="1196" d="M104 0v125l572 545q115 112 170 191.5t55 164.5q0 122 -82 196t-221 74q-141 0 -220 -78t-79 -223h-162q0 201 124.5 320t336.5 119q209 0 337 -114.5t128 -293.5q0 -122 -66 -230.5t-194 -228.5l-432 -430h723v-137h-990z" />
<glyph unicode="3" horiz-adv-x="1216" d="M115 385h161q0 -126 92 -194t240 -68q149 0 241.5 66.5t92.5 191.5q0 131 -92 194.5t-236 63.5h-227v139h227q144 0 236 63.5t92 194.5q0 125 -93 192.5t-241 67.5t-240 -68t-92 -194h-161q0 182 134 291t359 109q227 0 361.5 -104t134.5 -283q0 -77 -22.5 -139 t-61 -100.5t-75 -61.5t-78.5 -37q32 -11 61.5 -26.5t63 -43.5t57 -63t39.5 -88t16 -115q0 -179 -134.5 -284t-361.5 -105q-225 0 -359 109.5t-134 291.5z" />
<glyph unicode="4" horiz-adv-x="1122" d="M33 285v137l489 995h176l-487 -995h584v524h161v-524h86v-137h-86v-285h-161v285h-762z" />
<glyph unicode="5" horiz-adv-x="1216" d="M115 473h161q0 -161 90 -255.5t242 -94.5q153 0 243.5 95t90.5 257q0 158 -90 253t-244 95q-46 0 -87 -8.5t-71 -22.5t-55.5 -31t-42 -33.5t-28 -30.5t-16.5 -23l-5 -8l-137 73l59 678h774v-137h-620l-40 -406q129 87 298 87q214 0 340.5 -134t126.5 -354 q0 -213 -133 -351t-363 -138q-153 0 -266.5 65t-170 175t-56.5 249z" />
<glyph unicode="6" horiz-adv-x="1216" d="M115 485q0 163 33.5 303.5t87.5 234.5t119 170t130 119.5t119 72.5t88 39l33 10v-138q-6 -2 -17 -6.5t-43.5 -22t-64.5 -39t-74.5 -60t-78.5 -83.5t-71.5 -110t-58.5 -139q119 125 324 125q212 0 337.5 -134t125.5 -354t-134 -354.5t-362 -134.5q-229 0 -361 135 t-132 366zM276 473q0 -164 89 -257t243 -93t244 93.5t90 256.5t-90 256.5t-244 93.5t-243 -93t-89 -257z" />
<glyph unicode="7" horiz-adv-x="962" d="M20 1280v137h926v-78l-387 -1339h-166l174 610h-323v140h364l152 530h-740z" />
<glyph unicode="8" horiz-adv-x="1216" d="M115 373q0 114 60 200.5t168 135.5q-108 48 -168 136t-60 202q0 174 135 280.5t358 106.5q224 0 359 -106.5t135 -280.5q0 -114 -60 -202t-168 -136q108 -49 168 -135.5t60 -200.5q0 -174 -135.5 -281.5t-358.5 -107.5t-358 107.5t-135 281.5zM276 381 q0 -119 89.5 -188.5t242.5 -69.5q154 0 244 69.5t90 188.5q0 118 -90.5 188t-243.5 70q-151 0 -241.5 -70t-90.5 -188zM276 1036q0 -118 90.5 -188t241.5 -70q153 0 243.5 70t90.5 188q0 119 -90.5 189.5t-243.5 70.5t-242.5 -70.5t-89.5 -189.5z" />
<glyph unicode="9" horiz-adv-x="1216" d="M115 946q0 221 132.5 354.5t360.5 133.5q230 0 363 -134.5t133 -365.5q0 -128 -21 -242.5t-56 -200t-81 -159t-96.5 -124t-101 -91t-96.5 -65t-81 -40.5t-56 -22l-21 -6v139q12 4 32.5 13t77 45.5t106 83t104.5 131t87 185.5q-118 -124 -323 -124q-212 0 -337.5 134.5 t-125.5 354.5zM276 946q0 -164 89 -258t243 -94t244 94t90 258q0 163 -90 256.5t-244 93.5t-243 -93t-89 -257z" />
<glyph unicode=":" horiz-adv-x="417" d="M142 81q0 28 20 48t48 20t48 -20t20 -48t-20 -48t-48 -20t-48 20t-20 48zM142 1023q0 28 20 48t48 20t48 -20t20 -48t-20 -48t-48 -20t-48 20t-20 48z" />
<glyph unicode=";" horiz-adv-x="434" d="M82 -168l82 483h155l-129 -483h-108zM138 1024q0 32 20.5 55t52.5 27q4 1 13 1q32 0 55.5 -19.5t27.5 -51.5q1 -4 1 -12q0 -32 -20 -56t-52 -28q-4 -1 -12 -1q-32 0 -56.5 20.5t-28.5 52.5q-1 4 -1 12z" />
<glyph unicode="&#x3c;" horiz-adv-x="1036" d="M113 709l813 567v-148l-607 -419l607 -420v-148z" />
<glyph unicode="=" horiz-adv-x="1075" d="M115 492v118h846v-118h-846zM115 807v119h846v-119h-846z" />
<glyph unicode="&#x3e;" horiz-adv-x="1040" d="M115 141v148l606 420l-606 419v148l813 -567z" />
<glyph unicode="?" horiz-adv-x="1148" d="M115 995q0 206 119.5 322.5t343.5 116.5q218 0 340 -105.5t122 -263.5q0 -59 -21.5 -110.5t-56.5 -88.5t-76.5 -70t-83.5 -62.5t-77 -58t-56.5 -64t-21.5 -74.5v-213h-147v225q0 69 40.5 126.5t98 98t114.5 79.5t97.5 91.5t40.5 114.5q0 106 -79.5 171.5t-225.5 65.5 q-154 0 -237 -75t-83 -226h-151zM477 80q0 40 28 68t68 28t68.5 -28t28.5 -68t-28.5 -68t-68.5 -28t-68 28t-28 68z" />
<glyph unicode="@" horiz-adv-x="2072" d="M113 551q0 169 39.5 324t118.5 285.5t188.5 226.5t258.5 150t320 54t319.5 -54t258.5 -150t188.5 -226.5t118 -285.5t39.5 -324q0 -148 -28 -259t-78.5 -177.5t-115.5 -98.5t-143 -32q-99 0 -172 40.5t-109 117.5q-121 -158 -294 -158q-189 0 -290 147.5t-101 419.5 q0 266 119.5 416.5t312.5 150.5q186 0 278.5 -92t92.5 -268v-467q0 -84 47.5 -132t117.5 -48q113 0 174.5 112.5t61.5 327.5q0 192 -55.5 359.5t-157 290.5t-252.5 194t-332 71t-332.5 -71t-252.5 -194t-157 -290.5t-56 -359.5q0 -260 97 -466.5t280 -326.5t421 -120 q92 0 177 19t141 46.5t98.5 55t61.5 46.5l20 19l72 -100q-8 -9 -23.5 -23t-69 -50.5t-114.5 -64t-159.5 -50.5t-203.5 -23q-171 0 -320 53.5t-258.5 149.5t-188.5 226t-118.5 285t-39.5 324zM780 551q0 -214 68 -330.5t190 -116.5q151 0 248 183v4v467q0 241 -215 241 q-123 0 -207 -122.5t-84 -325.5z" />
<glyph unicode="A" horiz-adv-x="1134" d="M20 0l469 1417h160l467 -1417h-168l-97 303h-563l-98 -303h-170zM330 434h479l-240 746z" />
<glyph unicode="B" horiz-adv-x="1275" d="M160 0v1417h540q162 0 273.5 -100.5t111.5 -278.5q0 -200 -144 -303q104 -36 166 -127.5t62 -228.5q0 -119 -53.5 -207t-137.5 -130t-185 -42h-633zM322 137h440q104 0 175 65.5t71 186.5q0 123 -62.5 186.5t-163.5 63.5h-460v-502zM322 778h350q109 0 180.5 64t71.5 186 q0 123 -71.5 187.5t-180.5 64.5h-350v-502z" />
<glyph unicode="C" horiz-adv-x="1323" d="M115 709q0 327 156.5 526t416.5 199q191 0 328.5 -112t193.5 -308h-159q-48 134 -142 208t-221 74q-190 0 -301 -159t-111 -428t111 -427.5t301 -158.5q127 0 221.5 73t141.5 207h159q-56 -196 -193 -307.5t-329 -111.5q-260 0 -416.5 199t-156.5 526z" />
<glyph unicode="D" horiz-adv-x="1282" d="M160 0v1417h565q204 0 327.5 -193t123.5 -515t-123.5 -515.5t-327.5 -193.5h-565zM322 137h368q148 0 236 154t88 418t-88 417.5t-236 153.5h-368v-1143z" />
<glyph unicode="E" horiz-adv-x="1122" d="M160 0v1417h925v-137h-763v-502h606v-139h-606v-502h763v-137h-925z" />
<glyph unicode="F" horiz-adv-x="1103" d="M160 0v1417h925v-137h-763v-502h606v-139h-606v-639h-162z" />
<glyph unicode="G" horiz-adv-x="1323" d="M115 709q0 327 156.5 526t416.5 199q191 0 328.5 -112t193.5 -308h-159q-48 134 -142 208t-221 74q-190 0 -301 -159t-111 -428q0 -268 108.5 -427t289.5 -159q178 0 278.5 123t100.5 336v28h-473v140h630v-168q0 -173 -60 -306.5t-182 -212.5t-292 -79q-251 0 -406 200 t-155 525z" />
<glyph unicode="H" horiz-adv-x="1239" d="M160 0v1417h162v-639h600v639h159v-1417h-159v639h-600v-639h-162z" />
<glyph unicode="I" horiz-adv-x="477" d="M160 0v1417h162v-1417h-162z" />
<glyph unicode="J" horiz-adv-x="624" d="M31 -16v139h53q100 0 160.5 66.5t60.5 185.5v1042h162v-1048q0 -181 -98 -283t-271 -102h-67z" />
<glyph unicode="K" horiz-adv-x="1187" d="M160 0v1417h162v-847l657 847h192l-542 -707l542 -710h-192l-449 581l-208 -272v-309h-162z" />
<glyph unicode="L" horiz-adv-x="1103" d="M160 0v1417h162v-1280h763v-137h-925z" />
<glyph unicode="M" horiz-adv-x="1462" d="M160 0v1417h170l403 -766l402 766h172v-1417h-162v1141l-363 -686h-100l-360 686v-1141h-162z" />
<glyph unicode="N" horiz-adv-x="1243" d="M160 0v1417h155l609 -1112v1112h161v-1417h-155l-608 1114v-1114h-162z" />
<glyph unicode="O" horiz-adv-x="1323" d="M115 709q0 326 150.5 525.5t398.5 199.5t397 -199t149 -526t-149 -526t-397 -199t-398.5 199.5t-150.5 525.5zM276 709q0 -269 104.5 -427.5t283.5 -158.5t283 158.5t104 427.5q0 270 -104 428.5t-283 158.5t-283.5 -159t-104.5 -428z" />
<glyph unicode="P" horiz-adv-x="1243" d="M160 0v1417h579q190 0 310 -117t120 -311t-120 -311t-310 -117h-417v-561h-162zM322 698h393q132 0 213.5 78t81.5 213t-82.5 213t-214.5 78h-391v-582z" />
<glyph unicode="Q" horiz-adv-x="1323" d="M115 709q0 326 150.5 525.5t398.5 199.5t397 -199t149 -526q0 -179 -47 -324t-134 -241l181 -302h-188l-121 200q-107 -58 -237 -58q-248 0 -398.5 199.5t-150.5 525.5zM276 709q0 -269 104.5 -427.5t283.5 -158.5q87 0 162 42l-3 5h13q102 63 158.5 203t56.5 336 q0 270 -104 428.5t-283 158.5t-283.5 -159t-104.5 -428z" />
<glyph unicode="R" horiz-adv-x="1226" d="M160 0v1417h567q159 0 258.5 -106t99.5 -283q0 -131 -57.5 -226t-156.5 -136l298 -666h-176l-288 639h-383v-639h-162zM322 778h362q108 0 174 66t66 184t-67 185t-175 67h-360v-502z" />
<glyph unicode="S" horiz-adv-x="1216" d="M115 1028q0 182 133 294t346 112t346 -110t133 -290h-162q0 117 -86.5 188.5t-230.5 71.5t-231 -70t-87 -184q0 -121 71.5 -185t201.5 -64h135q194 0 307 -105.5t113 -296.5q0 -182 -132 -293.5t-341 -111.5q-211 0 -347.5 110t-136.5 291h160q0 -118 87 -190t231 -72 t230.5 70t86.5 184q0 120 -72.5 185t-201.5 65h-136q-194 0 -305.5 105t-111.5 296z" />
<glyph unicode="T" horiz-adv-x="962" d="M20 1280v137h926v-137h-381v-1280h-164v1280h-381z" />
<glyph unicode="U" horiz-adv-x="1243" d="M160 379v1038h162v-1038q0 -124 80 -190t221 -66t221 66t80 190v1038h161v-1038q0 -183 -124 -289t-338 -106t-338.5 106t-124.5 289z" />
<glyph unicode="V" horiz-adv-x="1134" d="M20 1417h170l379 -1194l377 1194h170l-467 -1417h-162z" />
<glyph unicode="W" horiz-adv-x="1562" d="M27 1417h166l256 -1155l276 1155h115l276 -1155l258 1155h166l-323 -1417h-164l-271 1106l-268 -1106h-164z" />
<glyph unicode="X" horiz-adv-x="1134" d="M20 0l455 709l-455 708h189l360 -575l359 575h188l-452 -708l452 -709h-188l-359 578l-360 -578h-189z" />
<glyph unicode="Y" horiz-adv-x="1134" d="M20 1417h179l370 -768l369 768h178l-467 -950v-467h-162v467z" />
<glyph unicode="Z" horiz-adv-x="1005" d="M41 0v125l719 1155h-719v137h926v-125l-717 -1155h717v-137h-926z" />
<glyph unicode="[" horiz-adv-x="471" d="M160 -313v2044q0 86 49 131t135 45h92v-127h-53q-33 0 -53.5 -18.5t-20.5 -53.5v-1999q0 -35 20.5 -53t53.5 -18h53v-125h-92q-87 0 -135.5 44t-48.5 130z" />
<glyph unicode="\" horiz-adv-x="761" d="M113 1417h155l385 -1417h-155z" />
<glyph unicode="]" horiz-adv-x="471" d="M37 -362h55q32 0 52 18t20 53v1999q0 35 -20 53.5t-52 18.5h-55v127h94q86 0 134 -45t48 -131v-2044q0 -86 -47.5 -130t-134.5 -44h-94v125z" />
<glyph unicode="^" horiz-adv-x="915" d="M115 936l286 481h115l287 -481h-156l-188 313l-191 -313h-153z" />
<glyph unicode="_" horiz-adv-x="1013" d="M115 0v119h792v-119h-792z" />
<glyph unicode="`" horiz-adv-x="552" d="M113 1446l86 84l243 -252l-45 -49z" />
<glyph unicode="a" horiz-adv-x="1075" d="M115 311q0 149 83 238.5t238 89.5h332v129q0 114 -66.5 169.5t-169.5 55.5q-102 0 -168.5 -55.5t-66.5 -169.5v-49h-150v49q0 164 105.5 257t279.5 93t281 -93.5t107 -256.5v-768h-121l-21 111q-160 -127 -334 -127q-158 0 -243.5 89t-85.5 238zM266 311q0 -93 51 -150 t154 -57q134 0 297 123v291h-297q-101 0 -153 -55.5t-52 -151.5z" />
<glyph unicode="b" horiz-adv-x="1075" d="M160 0v1575h149v-578q95 121 266 121q189 0 288.5 -147t99.5 -420t-99.5 -420t-288.5 -147q-180 0 -277 138l-19 -122h-119zM309 302q64 -191 236 -191q129 0 198.5 111.5t69.5 328.5t-69.5 329.5t-198.5 112.5q-173 0 -236 -196v-495z" />
<glyph unicode="c" horiz-adv-x="1052" d="M115 551q0 273 108.5 420t313.5 147q164 0 266.5 -94t136.5 -274h-149q-27 114 -91.5 178.5t-162.5 64.5q-132 0 -201.5 -112t-69.5 -330t69.5 -329t201.5 -111q98 0 162.5 64.5t91.5 178.5h149q-34 -181 -136.5 -275.5t-266.5 -94.5q-205 0 -313.5 147t-108.5 420z" />
<glyph unicode="d" horiz-adv-x="1079" d="M119 551q0 273 99 420t288 147q171 0 266 -121v578h150v-1575h-121l-18 121q-97 -137 -277 -137q-189 0 -288 147t-99 420zM268 551q0 -217 70 -328.5t199 -111.5q172 0 235 198v488q-63 196 -235 196q-129 0 -199 -112.5t-70 -329.5z" />
<glyph unicode="e" horiz-adv-x="1081" d="M123 551q0 275 107.5 421t308.5 146q203 0 310 -143.5t107 -423.5l-4 -53h-678q8 -188 78 -288.5t197 -100.5q56 0 102.5 22t77 58.5t49.5 77t29 85.5h149q-32 -179 -137 -273.5t-272 -94.5q-209 0 -316.5 148t-107.5 419zM274 618h531q-11 181 -78 279t-186 98 q-121 0 -188.5 -97.5t-78.5 -279.5z" />
<glyph unicode="f" horiz-adv-x="636" d="M29 983v119h139v84q0 198 109.5 301.5t295.5 103.5h41v-125h-43q-111 0 -182.5 -71t-71.5 -209v-84h297v-119h-297v-983h-149v983h-139z" />
<glyph unicode="g" horiz-adv-x="1015" d="M96 -178q0 145 119 237q-102 57 -102 189q0 114 89 189q-73 103 -73 272q0 197 99 303t286 106q107 0 186 -35q97 46 97 177h125q0 -166 -130 -238q109 -106 109 -313q0 -196 -100 -303t-287 -107q-136 0 -228 58q-24 -38 -24 -83q0 -135 168 -135h193q141 0 225 -84 t84 -225q0 -153 -111.5 -235t-306.5 -82t-306.5 79.5t-111.5 229.5zM246 -160q0 -100 73.5 -151t196.5 -51q122 0 194 49.5t72 146.5q0 85 -48.5 134.5t-139.5 49.5h-186q-2 0 -53 3q-109 -66 -109 -181zM279 705q0 -140 61.5 -212.5t173.5 -72.5t174 72.5t62 212.5 q0 141 -62 214.5t-174 73.5t-173.5 -73.5t-61.5 -214.5z" />
<glyph unicode="h" horiz-adv-x="1077" d="M160 0v1575h149v-631q143 174 371 174q121 0 186.5 -64.5t65.5 -179.5v-874h-150v819q0 81 -42 127.5t-128 46.5q-48 0 -92 -14t-75.5 -34.5t-59.5 -49.5t-45 -52.5t-31 -49.5v-793h-149z" />
<glyph unicode="i" horiz-adv-x="464" d="M160 0v1102h149v-1102h-149zM160 1358v217h149v-217h-149z" />
<glyph unicode="j" horiz-adv-x="462" d="M-133 -362h41q111 0 180.5 70t69.5 208v1186h149v-1176q0 -204 -107.5 -308.5t-293.5 -104.5h-39v125zM158 1358v217h149v-217h-149z" />
<glyph unicode="k" horiz-adv-x="978" d="M160 0v1575h149v-1067l475 594h179l-434 -541l434 -561h-179l-345 449l-130 -162v-287h-149z" />
<glyph unicode="l" horiz-adv-x="464" d="M160 0v1575h149v-1575h-149z" />
<glyph unicode="m" horiz-adv-x="1562" d="M160 0v1102h119l22 -156q128 172 315 172q98 0 159.5 -44.5t78.5 -126.5q127 171 313 171q117 0 180.5 -62t63.5 -175v-881h-149v829q0 76 -39.5 120t-118.5 44q-144 0 -244 -189v-804h-149l-2 829q0 77 -38.5 120.5t-117.5 43.5q-144 0 -244 -193v-800h-149z" />
<glyph unicode="n" horiz-adv-x="1089" d="M160 0v1102h119l22 -172q144 188 379 188q121 0 186.5 -64.5t65.5 -179.5v-874h-150v819q0 81 -43 127.5t-129 46.5q-59 0 -111 -20.5t-88.5 -55t-60 -66t-41.5 -65.5v-786h-149z" />
<glyph unicode="o" horiz-adv-x="1062" d="M115 551q0 273 106.5 420t310.5 147t311 -147t107 -420t-107 -420t-311 -147t-310.5 147t-106.5 420zM266 551q0 -217 69 -328.5t197 -111.5t198.5 112t70.5 328q0 217 -70.5 329.5t-198.5 112.5t-197 -112.5t-69 -329.5z" />
<glyph unicode="p" horiz-adv-x="1075" d="M160 -473v1575h119l19 -122q97 138 277 138q189 0 288.5 -147t99.5 -420t-99.5 -420t-288.5 -147q-171 0 -266 122v-579h-149zM309 307q63 -196 236 -196q129 0 198.5 111.5t69.5 328.5t-69.5 329.5t-198.5 112.5q-171 0 -236 -194v-492z" />
<glyph unicode="q" horiz-adv-x="1089" d="M129 551q0 274 98 420.5t287 146.5q182 0 279 -138l18 122h121v-1575h-150v580q-96 -123 -268 -123q-189 0 -287 146.5t-98 420.5zM279 551q0 -217 69.5 -328.5t198.5 -111.5q172 0 235 196v486q-63 200 -235 200q-129 0 -198.5 -112.5t-69.5 -329.5z" />
<glyph unicode="r" horiz-adv-x="714" d="M156 0v1102h118l23 -209q139 225 393 225v-149q-71 0 -132 -18.5t-101 -46t-72.5 -65.5t-50.5 -71t-31 -69v-699h-147z" />
<glyph unicode="s" horiz-adv-x="1017" d="M113 799q0 150 99 234.5t284 84.5q183 0 282 -86t99 -231h-150q0 90 -60 141t-173 51q-111 0 -171.5 -49.5t-60.5 -138.5q0 -86 53 -135t150 -49h113q148 0 238.5 -85t90.5 -231q0 -150 -98 -235.5t-283 -85.5q-183 0 -283 87t-100 232h150q0 -90 60 -141t173 -51 q111 0 171.5 49.5t60.5 138.5q0 85 -55.5 134.5t-149.5 49.5h-113q-148 0 -237.5 85t-89.5 231z" />
<glyph unicode="t" horiz-adv-x="645" d="M31 983v119h141v237h150v-237h294v-119h-294v-594q0 -138 71 -208t182 -70h41v-127h-38q-186 0 -296 103.5t-110 301.5v594h-141z" />
<glyph unicode="u" horiz-adv-x="1089" d="M160 229v873h149v-817q0 -81 42 -127.5t128 -46.5q59 0 111 20.5t89 55.5t61 66t42 66v783h150v-1102h-121l-21 172q-146 -188 -378 -188q-120 0 -186 65t-66 180z" />
<glyph unicode="v" horiz-adv-x="878" d="M25 1102h157l260 -914l263 914h155l-342 -1102h-149z" />
<glyph unicode="w" horiz-adv-x="1312" d="M25 1102h155l205 -891l205 891h137l207 -891l203 891h153l-266 -1102h-150l-217 866l-213 -866h-149z" />
<glyph unicode="x" horiz-adv-x="878" d="M25 0l333 551l-333 551h172l247 -422l246 422h172l-332 -551l332 -551h-172l-246 422l-247 -422h-172z" />
<glyph unicode="y" horiz-adv-x="878" d="M25 1102h157l262 -914l261 914h157l-491 -1575h-156l150 483z" />
<glyph unicode="z" horiz-adv-x="858" d="M49 0v102l563 881h-563v119h762v-103l-561 -880h561v-119h-762z" />
<glyph unicode="{" horiz-adv-x="512" d="M35 645v127h94q29 0 46.5 16.5t17.5 47.5v895q0 86 48 131t134 45h94v-127h-53q-33 0 -53.5 -18.5t-20.5 -53.5v-856q0 -100 -74 -141q74 -41 74 -146v-856q0 -35 20.5 -53t53.5 -18h53v-125h-94q-87 0 -134.5 44t-47.5 130v897q0 61 -64 61h-94z" />
<glyph unicode="|" horiz-adv-x="434" d="M143 -473v2363h150v-2363h-150z" />
<glyph unicode="}" horiz-adv-x="518" d="M45 -362h55q32 0 52 18t20 53v856q0 105 74 146q-74 41 -74 141v856q0 35 -20 53.5t-52 18.5h-55v127h94q86 0 134.5 -45t48.5 -131v-895q0 -31 17 -47.5t46 -16.5h94v-127h-94q-63 0 -63 -61v-897q0 -86 -48 -130t-135 -44h-94v125z" />
<glyph unicode="~" horiz-adv-x="1075" d="M115 602v123q4 3 11.5 9t33 21t53 26t70 20.5t86.5 9.5q71 0 170 -44t170 -44q69 0 132 22t91 44l29 22v-123q-4 -3 -11.5 -9t-32.5 -21t-52 -26t-69.5 -20.5t-86.5 -9.5q-71 0 -170 44t-170 44q-69 0 -132.5 -22t-92.5 -44z" />
<glyph unicode="&#xa1;" horiz-adv-x="417" d="M115 965q0 40 28 67t68 27t68 -27t28 -67t-28 -68.5t-68 -28.5t-68 28.5t-28 68.5zM135 -375l21 1094h108l21 -1094h-150z" />
<glyph unicode="&#xa2;" horiz-adv-x="1052" d="M115 551q0 256 95.5 402t276.5 163v146h80v-145q151 -9 246 -102.5t127 -264.5h-149q-27 114 -91.5 178.5t-162.5 64.5q-132 0 -201.5 -112t-69.5 -330t69.5 -329t201.5 -111q98 0 162.5 64.5t91.5 178.5h149q-32 -171 -127.5 -265.5t-245.5 -103.5v-143h-80v144 q-181 17 -276.5 163t-95.5 402z" />
<glyph unicode="&#xa3;" horiz-adv-x="1212" d="M88 0v137h86v512h-86v80h86v277q0 194 125 311t338 117q214 0 338.5 -118.5t124.5 -320.5h-162q0 146 -79 223.5t-222 77.5q-141 0 -221 -74.5t-80 -207.5v-285h424v-80h-424v-512h758v-137h-1006z" />
<glyph unicode="&#xa4;" horiz-adv-x="1024" d="M109 373l108 108q-78 97 -78 226t78 229l-108 108l71 74l111 -110q96 77 225 77q131 0 227 -77l109 110l74 -74l-111 -108q80 -103 80 -229q0 -129 -78 -226l109 -108l-74 -72l-107 109q-105 -82 -229 -82q-122 0 -227 82l-109 -109zM240 707q0 -114 81 -194.5t195 -80.5 t195.5 80.5t81.5 194.5t-81.5 196t-195.5 82t-195 -82t-81 -196z" />
<glyph unicode="&#xa5;" horiz-adv-x="1323" d="M115 1417h180l369 -768l368 768h178l-464 -944h335v-80h-338v-131h338v-80h-338v-182h-161v182h-336v80h336v131h-336v80h333z" />
<glyph unicode="&#xa6;" horiz-adv-x="434" d="M143 -473v1104h150v-1104h-150zM143 788v1102h150v-1102h-150z" />
<glyph unicode="&#xa7;" horiz-adv-x="1216" d="M115 545q0 80 39.5 148.5t110.5 115.5q-150 88 -150 278q0 152 133 249.5t340 97.5q210 0 347.5 -95.5t137.5 -248.5h-162q0 90 -87 148t-230 58t-230.5 -59t-87.5 -150q0 -97 66.5 -146.5t194.5 -49.5h141q202 0 314 -87t112 -247q0 -80 -41 -147.5t-116 -114.5 q157 -88 157 -281q0 -152 -133 -249t-340 -97q-210 0 -347 95.5t-137 248.5h156q0 -90 87.5 -147.5t232.5 -57.5q144 0 231.5 58t87.5 149q0 97 -71 147t-209 50h-146q-190 0 -295.5 87t-105.5 247zM276 561q0 -99 68 -156t195 -57h172q18 0 50 -2q85 20 133 72t48 125 q0 100 -67.5 155.5t-194.5 55.5h-182q-29 0 -43 1q-84 -20 -131.5 -71t-47.5 -123z" />
<glyph unicode="&#xa8;" horiz-adv-x="628" d="M113 1290q0 25 17.5 43.5t43.5 18.5q24 0 41.5 -18.5t17.5 -43.5t-17 -43t-42 -18q-26 0 -43.5 18t-17.5 43zM397 1290q0 25 18.5 43.5t43.5 18.5q26 0 43.5 -18.5t17.5 -43.5t-17.5 -43t-43.5 -18q-25 0 -43.5 18t-18.5 43z" />
<glyph unicode="&#xaa;" horiz-adv-x="804" d="M115 850q0 108 59.5 172.5t171.5 64.5h236v93q0 80 -47 118.5t-119 38.5t-119 -38.5t-47 -118.5v-54h-113v54q0 119 76.5 186.5t202.5 67.5q125 0 201.5 -67t76.5 -185v-553h-92l-14 75q-117 -90 -236 -90q-114 0 -175.5 64.5t-61.5 171.5zM227 850q0 -65 37.5 -104 t110.5 -39q96 0 207 85v201h-207q-72 0 -110 -38.5t-38 -104.5z" />
<glyph unicode="&#xab;" horiz-adv-x="1189" d="M113 551l381 551h172l-379 -551l379 -551h-172zM528 551l381 551h172l-379 -551l379 -551h-172z" />
<glyph unicode="&#xac;" horiz-adv-x="980" d="M115 739v121h751v-420h-118v299h-633z" />
<glyph unicode="&#xad;" horiz-adv-x="866" d="M113 541v121h653v-121h-653z" />
<glyph unicode="&#xaf;" horiz-adv-x="690" d="M115 1270v96h463v-96h-463z" />
<glyph unicode="&#xb0;" horiz-adv-x="673" d="M115 1210q0 92 65.5 158t157.5 66t157.5 -66t65.5 -158t-65.5 -156.5t-157.5 -64.5t-157.5 64.5t-65.5 156.5zM195 1210q0 -60 41.5 -101.5t101.5 -41.5t101.5 41.5t41.5 101.5t-41.5 103t-101.5 43t-101.5 -43t-41.5 -103z" />
<glyph unicode="&#xb1;" horiz-adv-x="1114" d="M115 0v119h886v-119h-886zM115 709v118h383v365h120v-365h383v-118h-383v-365h-120v365h-383z" />
<glyph unicode="&#xb2;" horiz-adv-x="776" d="M115 631v76l317 303q58 57 86.5 102t28.5 92q0 64 -41.5 103t-112.5 39q-72 0 -113.5 -41.5t-41.5 -116.5h-105q0 112 70.5 179t189.5 67q117 0 187.5 -63.5t70.5 -164.5q0 -70 -35 -131t-104 -127l-233 -231h389v-86h-553z" />
<glyph unicode="&#xb3;" horiz-adv-x="784" d="M115 842h104q0 -67 48 -102t126 -35q77 0 125.5 36.5t48.5 102.5q0 69 -48.5 102t-123.5 33h-125v90h127q75 0 122.5 33t47.5 102q0 66 -48.5 102.5t-125.5 36.5q-78 0 -126 -35.5t-48 -101.5h-104q0 103 75.5 165.5t202.5 62.5q128 0 204.5 -59.5t76.5 -160.5 q0 -142 -133 -190q133 -48 133 -190q0 -101 -76.5 -160.5t-204.5 -59.5q-127 0 -202.5 62.5t-75.5 165.5z" />
<glyph unicode="&#xb4;" horiz-adv-x="552" d="M113 1278l245 252l84 -84l-284 -217z" />
<glyph unicode="&#xb6;" horiz-adv-x="1114" d="M129 1073q0 143 100 243.5t242 100.5h244v-1732h-90v1044h-154q-142 0 -242 100.5t-100 243.5zM877 -315v1732h90v-1732h-90z" />
<glyph unicode="&#xb7;" horiz-adv-x="417" d="M115 709q0 40 28 67t68 27t68 -27t28 -67t-28 -67.5t-68 -27.5t-68 27.5t-28 67.5z" />
<glyph unicode="&#xb8;" horiz-adv-x="624" d="M117 -225h88q0 -44 29 -74.5t79 -30.5t79.5 30.5t29.5 74.5t-27.5 73t-79.5 29h-59l45 154h80l-19 -66q70 -15 110 -67t40 -123q0 -83 -53.5 -139t-145.5 -56q-91 0 -143.5 56t-52.5 139z" />
<glyph unicode="&#xb9;" horiz-adv-x="409" d="M98 1327v90h189v-786h-105v696h-84z" />
<glyph unicode="&#xba;" horiz-adv-x="958" d="M115 1024q0 182 102.5 296t263.5 114t263 -114t102 -296t-102 -296t-263 -114t-263.5 114t-102.5 296zM221 1024q0 -144 72.5 -231.5t187.5 -87.5t186.5 87.5t71.5 231.5q0 140 -73.5 229.5t-184.5 89.5q-115 0 -187.5 -87.5t-72.5 -231.5z" />
<glyph unicode="&#xbb;" horiz-adv-x="1189" d="M113 0l379 551l-379 551h172l381 -551l-381 -551h-172zM528 0l379 551l-379 551h172l381 -551l-381 -551h-172z" />
<glyph unicode="&#xbc;" horiz-adv-x="1390" d="M115 1327v90h188v-786h-104v696h-84zM162 0l700 1417h137l-700 -1417h-137zM725 158v71l88 559h102l-77 -538h297v538h106v-538h45v-92h-45v-158h-106v158h-410z" />
<glyph unicode="&#xbd;" horiz-adv-x="1382" d="M115 1327v90h188v-786h-104v696h-84zM162 0l700 1417h137l-700 -1417h-137zM723 0v76l317 303q58 57 86.5 102t28.5 92q0 64 -41.5 103t-112.5 39q-72 0 -113.5 -41.5t-41.5 -116.5h-105q0 112 70.5 179t189.5 67q117 0 188 -63.5t71 -164.5q0 -70 -35.5 -131 t-104.5 -127l-233 -231h391v-86h-555z" />
<glyph unicode="&#xbe;" horiz-adv-x="1626" d="M115 842h106q0 -67 48 -102t126 -35q77 0 125.5 36.5t48.5 102.5q0 69 -49 102t-125 33h-123v90h125q75 0 123.5 33t48.5 102q0 66 -48.5 102.5t-125.5 36.5q-78 0 -126 -35.5t-48 -101.5h-106q0 103 76.5 165.5t203.5 62.5q128 0 203.5 -59.5t75.5 -160.5 q0 -142 -131 -190q131 -48 131 -190q0 -101 -75.5 -160.5t-203.5 -59.5q-127 0 -203.5 62.5t-76.5 165.5zM397 0l701 1417h137l-700 -1417h-138zM961 158v71l88 559h100l-76 -538h297v538h107v-538h45v-92h-45v-158h-107v158h-409z" />
<glyph unicode="&#xbf;" horiz-adv-x="1148" d="M115 -20q0 59 22 110.5t56.5 88.5t76.5 70t84.5 62.5t77 58t56.5 64t22 74.5v211h145v-223q0 -51 -21.5 -95.5t-56 -77t-75.5 -63t-82.5 -59.5t-76 -60t-56 -71t-21.5 -86q0 -106 79 -171t226 -65q154 0 237 75t83 226h149q0 -206 -119 -322t-343 -116q-219 0 -341 105.5 t-122 263.5zM487 965q0 40 27.5 67t67.5 27t68 -27t28 -67t-28 -68.5t-68 -28.5t-67.5 28.5t-27.5 68.5z" />
<glyph unicode="&#xc0;" horiz-adv-x="1134" d="M20 0l469 1417h160l467 -1417h-168l-97 303h-563l-98 -303h-170zM279 1743l86 84l243 -252l-45 -49zM330 434h479l-240 746z" />
<glyph unicode="&#xc1;" horiz-adv-x="1134" d="M20 0l469 1417h160l467 -1417h-168l-97 303h-563l-98 -303h-170zM330 434h479l-240 746zM520 1575l246 252l86 -84l-285 -217z" />
<glyph unicode="&#xc2;" horiz-adv-x="1134" d="M20 0l469 1417h160l467 -1417h-168l-97 303h-563l-98 -303h-170zM328 1528l194 254h78l195 -254h-109l-125 176l-125 -176h-108zM330 434h479l-240 746z" />
<glyph unicode="&#xc3;" horiz-adv-x="1134" d="M20 0l469 1417h160l467 -1417h-168l-97 303h-563l-98 -303h-170zM330 434h479l-240 746zM352 1526v94q6 6 17 14.5t45.5 22.5t70.5 14q38 0 91 -29.5t83 -29.5q36 0 68 15t47 29l14 15v-94q-6 -6 -16 -14.5t-43.5 -22.5t-69.5 -14q-38 0 -89.5 28.5t-84.5 28.5 q-36 0 -69 -14.5t-48 -28.5z" />
<glyph unicode="&#xc4;" horiz-adv-x="1134" d="M20 0l469 1417h160l467 -1417h-168l-97 303h-563l-98 -303h-170zM330 434h479l-240 746zM358 1587q0 25 18 43.5t44 18.5q24 0 41.5 -18.5t17.5 -43.5t-17 -43t-42 -18q-26 0 -44 18t-18 43zM643 1587q0 25 17.5 43.5t41.5 18.5q26 0 44 -18.5t18 -43.5t-18 -43t-44 -18 q-25 0 -42 18t-17 43z" />
<glyph unicode="&#xc5;" horiz-adv-x="1134" d="M20 0l469 1417h160l467 -1417h-168l-97 303h-563l-98 -303h-170zM330 434h479l-240 746zM424 1679q0 64 42.5 107t104.5 43q64 0 105 -42.5t41 -107.5q0 -68 -41 -110.5t-105 -42.5q-62 0 -104.5 43t-42.5 110zM506 1679q0 -33 16.5 -53t48.5 -20q64 0 64 73q0 70 -64 70 q-32 0 -48.5 -20t-16.5 -50z" />
<glyph unicode="&#xc6;" horiz-adv-x="1847" d="M20 0l467 1417h1323v-137h-766v-502h609v-139h-609v-502h766v-137h-925v401h-562l-133 -401h-170zM366 532h519v748h-273z" />
<glyph unicode="&#xc7;" horiz-adv-x="1323" d="M115 709q0 327 156.5 526t416.5 199q191 0 328.5 -112t193.5 -308h-159q-48 134 -142 208t-221 74q-190 0 -301 -159t-111 -428t111 -427.5t301 -158.5q127 0 221.5 73t141.5 207h159q-52 -183 -176.5 -294t-298.5 -124l-6 -20q71 -14 110.5 -66t39.5 -124 q0 -83 -52.5 -139t-144.5 -56q-91 0 -145 56t-54 139h88q0 -43 30.5 -74t80.5 -31t78 30.5t28 74.5t-27.5 73t-78.5 29h-59l31 108q-163 9 -285 101.5t-188 253.5t-66 369z" />
<glyph unicode="&#xc8;" horiz-adv-x="1122" d="M160 0v1417h925v-137h-763v-502h606v-139h-606v-502h763v-137h-925zM362 1743l87 84l243 -252l-45 -49z" />
<glyph unicode="&#xc9;" horiz-adv-x="1122" d="M160 0v1417h925v-137h-763v-502h606v-139h-606v-502h763v-137h-925zM543 1577l243 252l86 -84l-284 -217z" />
<glyph unicode="&#xca;" horiz-adv-x="1122" d="M160 0v1417h925v-137h-763v-502h606v-139h-606v-502h763v-137h-925zM389 1528l195 254h78l192 -254h-109l-122 176l-125 -176h-109z" />
<glyph unicode="&#xcb;" horiz-adv-x="1122" d="M160 0v1417h925v-137h-763v-502h606v-139h-606v-502h763v-137h-925zM414 1587q0 25 17.5 43.5t43.5 18.5q25 0 43.5 -18.5t18.5 -43.5t-18.5 -43t-43.5 -18q-26 0 -43.5 18t-17.5 43zM698 1587q0 25 18.5 43.5t43.5 18.5q26 0 43.5 -18.5t17.5 -43.5t-17.5 -43t-43.5 -18 q-25 0 -43.5 18t-18.5 43z" />
<glyph unicode="&#xcc;" horiz-adv-x="473" d="M-49 1743l86 82l244 -252l-45 -47zM160 0v1417h162v-1417h-162z" />
<glyph unicode="&#xcd;" horiz-adv-x="473" d="M160 0v1417h162v-1417h-162zM186 1575l246 252l84 -84l-283 -217z" />
<glyph unicode="&#xce;" horiz-adv-x="473" d="M0 1526l197 254h77l193 -254h-109l-125 176l-122 -176h-111zM160 0v1417h162v-1417h-162z" />
<glyph unicode="&#xcf;" horiz-adv-x="473" d="M31 1587q0 25 18.5 43.5t44.5 18.5q25 0 42.5 -18.5t17.5 -43.5t-17.5 -43t-42.5 -18q-26 0 -44.5 18t-18.5 43zM160 0v1417h162v-1417h-162zM315 1587q0 25 18.5 43.5t43.5 18.5q26 0 43.5 -18.5t17.5 -43.5t-17.5 -43t-43.5 -18q-25 0 -43.5 18t-18.5 43z" />
<glyph unicode="&#xd0;" horiz-adv-x="1312" d="M51 670v78h129v669h568q204 0 327 -193t123 -515t-123 -515.5t-327 -193.5h-568v670h-129zM344 137h367q148 0 235.5 153.5t87.5 418.5q0 264 -87.5 417.5t-235.5 153.5h-367v-532h293v-78h-293v-533z" />
<glyph unicode="&#xd1;" horiz-adv-x="1243" d="M160 0v1417h155l609 -1112v1112h161v-1417h-155l-608 1114v-1114h-162zM395 1526v94q6 6 16.5 14.5t44.5 22.5t70 14q38 0 91 -29.5t83 -29.5q36 0 68 15t46 29l15 15v-94q-6 -6 -16 -14.5t-43.5 -22.5t-69.5 -14q-38 0 -89.5 28.5t-84.5 28.5q-36 0 -68.5 -14.5 t-47.5 -28.5z" />
<glyph unicode="&#xd2;" horiz-adv-x="1343" d="M115 709q0 326 150.5 525.5t398.5 199.5t397 -199t149 -526t-149 -526t-397 -199t-398.5 199.5t-150.5 525.5zM276 709q0 -269 104.5 -427.5t283.5 -158.5t283 158.5t104 427.5q0 270 -104 428.5t-283 158.5t-283.5 -159t-104.5 -428zM389 1743l86 84l244 -252l-45 -49z " />
<glyph unicode="&#xd3;" horiz-adv-x="1343" d="M115 709q0 326 150.5 525.5t398.5 199.5t397 -199t149 -526t-149 -526t-397 -199t-398.5 199.5t-150.5 525.5zM276 709q0 -269 104.5 -427.5t283.5 -158.5t283 158.5t104 427.5q0 270 -104 428.5t-283 158.5t-283.5 -159t-104.5 -428zM623 1575l243 252l86 -84l-284 -217 z" />
<glyph unicode="&#xd4;" horiz-adv-x="1343" d="M115 709q0 326 150.5 525.5t398.5 199.5t397 -199t149 -526t-149 -526t-397 -199t-398.5 199.5t-150.5 525.5zM276 709q0 -269 104.5 -427.5t283.5 -158.5t283 158.5t104 427.5q0 270 -104 428.5t-283 158.5t-283.5 -159t-104.5 -428zM436 1526l197 254h78l192 -254h-108 l-125 176l-123 -176h-111z" />
<glyph unicode="&#xd5;" horiz-adv-x="1343" d="M115 709q0 326 150.5 525.5t398.5 199.5t397 -199t149 -526t-149 -526t-397 -199t-398.5 199.5t-150.5 525.5zM276 709q0 -269 104.5 -427.5t283.5 -158.5t283 158.5t104 427.5q0 270 -104 428.5t-283 158.5t-283.5 -159t-104.5 -428zM459 1526v94q6 6 16.5 14.5 t44.5 22.5t70 14q38 0 92 -29.5t84 -29.5q36 0 68 15t46 29l15 15v-94q-6 -6 -16 -14.5t-43.5 -22.5t-69.5 -14q-38 0 -90.5 28.5t-85.5 28.5q-36 0 -68.5 -14.5t-47.5 -28.5z" />
<glyph unicode="&#xd6;" horiz-adv-x="1343" d="M115 709q0 326 150.5 525.5t398.5 199.5t397 -199t149 -526t-149 -526t-397 -199t-398.5 199.5t-150.5 525.5zM276 709q0 -269 104.5 -427.5t283.5 -158.5t283 158.5t104 427.5q0 270 -104 428.5t-283 158.5t-283.5 -159t-104.5 -428zM463 1587q0 25 18.5 43.5t44.5 18.5 q25 0 42.5 -18.5t17.5 -43.5t-17.5 -43t-42.5 -18q-26 0 -44.5 18t-18.5 43zM750 1587q0 25 17.5 43.5t41.5 18.5q26 0 43.5 -18.5t17.5 -43.5t-17.5 -43t-43.5 -18q-25 0 -42 18t-17 43z" />
<glyph unicode="&#xd8;" horiz-adv-x="1323" d="M117 709q0 326 150.5 525.5t398.5 199.5q176 0 306 -105l87 150l69 -39l-96 -168q87 -96 133.5 -240t46.5 -323q0 -327 -149 -526t-397 -199q-181 0 -314 110l-90 -155l-69 41l99 172q-175 200 -175 557zM279 709q0 -260 95 -415l524 906q-96 96 -232 96 q-179 0 -283 -158.5t-104 -428.5zM427 224q96 -101 239 -101q179 0 283 158.5t104 427.5q0 264 -102 424z" />
<glyph unicode="&#xd9;" horiz-adv-x="1239" d="M160 379v1038h162v-1038q0 -124 80 -190t221 -66t221 66t80 190v1038h161v-1038q0 -183 -124 -289t-338 -106t-338.5 106t-124.5 289zM332 1743l86 84l244 -252l-46 -49z" />
<glyph unicode="&#xda;" horiz-adv-x="1239" d="M160 379v1038h162v-1038q0 -124 80 -190t221 -66t221 66t80 190v1038h161v-1038q0 -183 -124 -289t-338 -106t-338.5 106t-124.5 289zM575 1575l246 252l84 -84l-284 -217z" />
<glyph unicode="&#xdb;" horiz-adv-x="1239" d="M160 379v1038h162v-1038q0 -124 80 -190t221 -66t221 66t80 190v1038h161v-1038q0 -183 -124 -289t-338 -106t-338.5 106t-124.5 289zM379 1526l194 254h78l193 -254h-109l-123 176l-125 -176h-108z" />
<glyph unicode="&#xdc;" horiz-adv-x="1239" d="M160 379v1038h162v-1038q0 -124 80 -190t221 -66t221 66t80 190v1038h161v-1038q0 -183 -124 -289t-338 -106t-338.5 106t-124.5 289zM406 1587q0 25 18.5 43.5t44.5 18.5q24 0 41.5 -18.5t17.5 -43.5t-17 -43t-42 -18q-26 0 -44.5 18t-18.5 43zM692 1587q0 25 17.5 43.5 t42.5 18.5q26 0 43.5 -18.5t17.5 -43.5t-17.5 -43t-43.5 -18q-25 0 -42.5 18t-17.5 43z" />
<glyph unicode="&#xdd;" horiz-adv-x="1144" d="M20 1417h179l370 -768l369 768h178l-467 -950v-467h-162v467zM526 1577l244 252l86 -84l-285 -217z" />
<glyph unicode="&#xde;" horiz-adv-x="1275" d="M160 0v1417h162v-280h419q190 0 309 -117t119 -311t-119 -311t-309 -117h-419v-281h-162zM322 418h393q132 0 213.5 78t81.5 213t-82.5 212.5t-214.5 77.5h-391v-581z" />
<glyph unicode="&#xdf;" horiz-adv-x="1236" d="M158 0v1227q0 173 108 268.5t293 95.5q182 0 292 -92.5t110 -259.5q0 -89 -38.5 -171t-115.5 -130q156 -42 237.5 -164t81.5 -293q0 -222 -112.5 -351.5t-321.5 -129.5h-69v125h61q136 0 214.5 99.5t78.5 269.5q0 162 -87.5 265t-260.5 103h-39v119q69 0 121 38.5 t76 93.5t24 114q0 120 -67.5 181.5t-184.5 61.5q-118 0 -185 -63t-67 -180v-1227h-149z" />
<glyph unicode="&#xe0;" horiz-adv-x="1079" d="M115 311q0 149 83 238.5t238 89.5h332v129q0 114 -66.5 169.5t-169.5 55.5q-102 0 -168.5 -55.5t-66.5 -169.5v-49h-150v49q0 164 105.5 257t279.5 93t281 -93.5t107 -256.5v-768h-121l-21 111q-160 -127 -334 -127q-158 0 -243.5 89t-85.5 238zM248 1446l84 84l246 -252 l-46 -49zM266 311q0 -93 51 -150t154 -57q134 0 297 123v291h-297q-101 0 -153 -55.5t-52 -151.5z" />
<glyph unicode="&#xe1;" horiz-adv-x="1079" d="M115 311q0 149 83 238.5t238 89.5h332v129q0 114 -66.5 169.5t-169.5 55.5q-102 0 -168.5 -55.5t-66.5 -169.5v-49h-150v49q0 164 105.5 257t279.5 93t281 -93.5t107 -256.5v-768h-121l-21 111q-160 -127 -334 -127q-158 0 -243.5 89t-85.5 238zM266 311q0 -93 51 -150 t154 -57q134 0 297 123v291h-297q-101 0 -153 -55.5t-52 -151.5zM489 1278l246 252l84 -84l-284 -217z" />
<glyph unicode="&#xe2;" horiz-adv-x="1079" d="M115 311q0 149 83 238.5t238 89.5h332v129q0 114 -66.5 169.5t-169.5 55.5q-102 0 -168.5 -55.5t-66.5 -169.5v-49h-150v49q0 164 105.5 257t279.5 93t281 -93.5t107 -256.5v-768h-121l-21 111q-160 -127 -334 -127q-158 0 -243.5 89t-85.5 238zM266 311q0 -93 51 -150 t154 -57q134 0 297 123v291h-297q-101 0 -153 -55.5t-52 -151.5zM295 1229l194 254h78l193 -254h-109l-123 176l-125 -176h-108z" />
<glyph unicode="&#xe3;" horiz-adv-x="1079" d="M115 311q0 149 83 238.5t238 89.5h332v129q0 114 -66.5 169.5t-169.5 55.5q-102 0 -168.5 -55.5t-66.5 -169.5v-49h-150v49q0 164 105.5 257t279.5 93t281 -93.5t107 -256.5v-768h-121l-21 111q-160 -127 -334 -127q-158 0 -243.5 89t-85.5 238zM266 311q0 -93 51 -150 t154 -57q134 0 297 123v291h-297q-101 0 -153 -55.5t-52 -151.5zM315 1229v94q6 6 16.5 14.5t44.5 22.5t70 14q38 0 91.5 -29.5t83.5 -29.5q36 0 68.5 14.5t47.5 29.5l15 15v-92q-6 -6 -16.5 -15t-44.5 -23.5t-70 -14.5q-38 0 -90 28.5t-85 28.5q-36 0 -68.5 -14t-47.5 -28z " />
<glyph unicode="&#xe4;" horiz-adv-x="1079" d="M115 311q0 149 83 238.5t238 89.5h332v129q0 114 -66.5 169.5t-169.5 55.5q-102 0 -168.5 -55.5t-66.5 -169.5v-49h-150v49q0 164 105.5 257t279.5 93t281 -93.5t107 -256.5v-768h-121l-21 111q-160 -127 -334 -127q-158 0 -243.5 89t-85.5 238zM266 311q0 -93 51 -150 t154 -57q134 0 297 123v291h-297q-101 0 -153 -55.5t-52 -151.5zM326 1290q0 25 17.5 43.5t43.5 18.5q24 0 41.5 -18.5t17.5 -43.5t-17 -43t-42 -18q-26 0 -43.5 18t-17.5 43zM610 1290q0 25 17.5 43.5t42.5 18.5q26 0 43.5 -18.5t17.5 -43.5t-17.5 -43t-43.5 -18 q-25 0 -42.5 18t-17.5 43z" />
<glyph unicode="&#xe5;" horiz-adv-x="1075" d="M115 311q0 149 83 238.5t238 89.5h332v129q0 114 -66.5 169.5t-169.5 55.5q-102 0 -168.5 -55.5t-66.5 -169.5v-49h-150v49q0 164 105.5 257t279.5 93t281 -93.5t107 -256.5v-768h-121l-21 111q-160 -127 -334 -127q-158 0 -243.5 89t-85.5 238zM266 311q0 -93 51 -150 t154 -57q134 0 297 123v291h-297q-101 0 -153 -55.5t-52 -151.5zM395 1380q0 64 43 107t105 43q64 0 104.5 -42.5t40.5 -107.5q0 -68 -40.5 -110.5t-104.5 -42.5q-62 0 -105 43t-43 110zM477 1380q0 -32 17 -52.5t49 -20.5q65 0 65 73q0 70 -65 70q-32 0 -49 -20t-17 -50z " />
<glyph unicode="&#xe6;" horiz-adv-x="1734" d="M125 307q0 150 82.5 241t236.5 91h333l-1 127q0 116 -65.5 172.5t-167.5 56.5q-101 0 -169.5 -57t-68.5 -172v-66h-149v66q0 166 106 259t281 93q69 0 127 -19.5t96.5 -52t64 -67t41.5 -73.5q17 39 41.5 72.5t62.5 67t94 53t124 19.5q203 0 312.5 -143.5t109.5 -423.5 l-4 -53h-683q8 -188 78.5 -288.5t198.5 -100.5q57 0 103.5 22t76.5 58.5t49 77t29 85.5h152q-32 -178 -140 -273t-274 -95q-242 0 -348 199q-32 -35 -69.5 -66t-88.5 -63t-113.5 -51t-127.5 -19q-158 0 -244 88.5t-86 234.5zM272 307q0 -92 52 -148.5t155 -56.5 q158 0 338 169q-35 107 -38 245h-300q-101 0 -154 -56.5t-53 -152.5zM930 618h532q-11 181 -79 279t-187 98q-120 0 -187.5 -97.5t-78.5 -279.5z" />
<glyph unicode="&#xe7;" horiz-adv-x="1052" d="M115 551q0 273 108.5 420t313.5 147q164 0 266.5 -94t136.5 -274h-149q-27 114 -91.5 178.5t-162.5 64.5q-132 0 -201.5 -112t-69.5 -330t69.5 -329t201.5 -111q98 0 162.5 64.5t91.5 178.5h149q-31 -165 -120 -259t-230 -109l-6 -21q71 -14 111 -66.5t40 -123.5 q0 -83 -53 -139t-145 -56q-91 0 -144 56t-53 139h88q0 -44 29.5 -74.5t79.5 -30.5t79 30.5t29 74.5t-27.5 73t-78.5 29h-60l32 107q-193 10 -294.5 156.5t-101.5 410.5z" />
<glyph unicode="&#xe8;" horiz-adv-x="1081" d="M123 551q0 275 107.5 421t308.5 146q203 0 310 -143.5t107 -423.5l-4 -53h-678q8 -188 78 -288.5t197 -100.5q56 0 102.5 22t77 58.5t49.5 77t29 85.5h149q-32 -179 -137 -273.5t-272 -94.5q-209 0 -316.5 148t-107.5 419zM244 1446l86 84l243 -252l-45 -49zM274 618h531 q-11 181 -78 279t-186 98q-121 0 -188.5 -97.5t-78.5 -279.5z" />
<glyph unicode="&#xe9;" horiz-adv-x="1081" d="M123 551q0 275 107.5 421t308.5 146q203 0 310 -143.5t107 -423.5l-4 -53h-678q8 -188 78 -288.5t197 -100.5q56 0 102.5 22t77 58.5t49.5 77t29 85.5h149q-32 -179 -137 -273.5t-272 -94.5q-209 0 -316.5 148t-107.5 419zM274 618h531q-11 181 -78 279t-186 98 q-121 0 -188.5 -97.5t-78.5 -279.5zM483 1278l244 252l86 -84l-285 -217z" />
<glyph unicode="&#xea;" horiz-adv-x="1081" d="M123 551q0 275 107.5 421t308.5 146q203 0 310 -143.5t107 -423.5l-4 -53h-678q8 -188 78 -288.5t197 -100.5q56 0 102.5 22t77 58.5t49.5 77t29 85.5h149q-32 -179 -137 -273.5t-272 -94.5q-209 0 -316.5 148t-107.5 419zM274 618h531q-11 181 -78 279t-186 98 q-121 0 -188.5 -97.5t-78.5 -279.5zM293 1229l194 254h80l193 -254h-109l-125 176l-123 -176h-110z" />
<glyph unicode="&#xeb;" horiz-adv-x="1081" d="M123 551q0 275 107.5 421t308.5 146q203 0 310 -143.5t107 -423.5l-4 -53h-678q8 -188 78 -288.5t197 -100.5q56 0 102.5 22t77 58.5t49.5 77t29 85.5h149q-32 -179 -137 -273.5t-272 -94.5q-209 0 -316.5 148t-107.5 419zM274 618h531q-11 181 -78 279t-186 98 q-121 0 -188.5 -97.5t-78.5 -279.5zM319 1290q0 25 18 43.5t44 18.5q25 0 43 -18.5t18 -43.5t-18 -43t-43 -18q-26 0 -44 18t-18 43zM604 1290q0 25 18.5 43.5t43.5 18.5q26 0 43.5 -18.5t17.5 -43.5t-17.5 -43t-43.5 -18q-25 0 -43.5 18t-18.5 43z" />
<glyph unicode="&#xec;" horiz-adv-x="464" d="M-49 1446l86 84l244 -252l-45 -49zM160 0v1102h149v-1102h-149z" />
<glyph unicode="&#xed;" horiz-adv-x="464" d="M160 0v1102h149v-1102h-149zM186 1278l244 252l86 -84l-285 -217z" />
<glyph unicode="&#xee;" horiz-adv-x="464" d="M0 1229l195 254h79l193 -254h-109l-125 176l-122 -176h-111zM160 0v1102h149v-1102h-149z" />
<glyph unicode="&#xef;" horiz-adv-x="464" d="M31 1290q0 25 17.5 43.5t43.5 18.5q25 0 43.5 -18.5t18.5 -43.5t-18.5 -43t-43.5 -18q-26 0 -43.5 18t-17.5 43zM160 0v1102h149v-1102h-149zM315 1290q0 25 18.5 43.5t43.5 18.5q26 0 43.5 -18.5t17.5 -43.5t-17.5 -43t-43.5 -18q-25 0 -43.5 18t-18.5 43z" />
<glyph unicode="&#xf0;" horiz-adv-x="1069" d="M119 473q0 233 98 360.5t283 127.5q177 0 278 -126q-55 250 -186 412l-160 -160l-55 58l162 161q-47 47 -97 80.5t-77 43.5l-27 10v151q6 -1 17 -4.5t44.5 -18t67.5 -33.5t81 -54t89 -78l119 119l55 -56l-121 -121q262 -316 262 -872q0 -235 -106 -362t-309 -127 q-204 0 -311 127.5t-107 361.5zM268 473q0 -178 71 -270t198 -92t196.5 91.5t69.5 270.5t-69.5 271t-196.5 92q-128 0 -198.5 -92t-70.5 -271z" />
<glyph unicode="&#xf1;" horiz-adv-x="1089" d="M160 0v1102h119l22 -172q144 188 379 188q121 0 186.5 -64.5t65.5 -179.5v-874h-150v819q0 81 -43 127.5t-129 46.5q-59 0 -111 -20.5t-88.5 -55t-60 -66t-41.5 -65.5v-786h-149zM322 1229v94q6 6 16.5 14.5t44.5 22.5t70 14q38 0 91 -29.5t83 -29.5q36 0 68.5 14.5 t47.5 29.5l15 15v-92q-6 -6 -16.5 -15t-44.5 -23.5t-70 -14.5q-38 0 -89.5 28.5t-84.5 28.5q-36 0 -68.5 -14t-47.5 -28z" />
<glyph unicode="&#xf2;" horiz-adv-x="1062" d="M115 551q0 273 106.5 420t310.5 147t311 -147t107 -420t-107 -420t-311 -147t-310.5 147t-106.5 420zM242 1446l86 84l243 -252l-45 -49zM266 551q0 -217 69 -328.5t197 -111.5t198.5 112t70.5 328q0 217 -70.5 329.5t-198.5 112.5t-197 -112.5t-69 -329.5z" />
<glyph unicode="&#xf3;" horiz-adv-x="1062" d="M115 551q0 273 106.5 420t310.5 147t311 -147t107 -420t-107 -420t-311 -147t-310.5 147t-106.5 420zM266 551q0 -217 69 -328.5t197 -111.5t198.5 112t70.5 328q0 217 -70.5 329.5t-198.5 112.5t-197 -112.5t-69 -329.5zM479 1278l244 252l86 -84l-285 -217z" />
<glyph unicode="&#xf4;" horiz-adv-x="1062" d="M115 551q0 273 106.5 420t310.5 147t311 -147t107 -420t-107 -420t-311 -147t-310.5 147t-106.5 420zM266 551q0 -217 69 -328.5t197 -111.5t198.5 112t70.5 328q0 217 -70.5 329.5t-198.5 112.5t-197 -112.5t-69 -329.5zM299 1229l197 254h77l193 -254h-109l-125 176 l-122 -176h-111z" />
<glyph unicode="&#xf5;" horiz-adv-x="1062" d="M115 551q0 273 106.5 420t310.5 147t311 -147t107 -420t-107 -420t-311 -147t-310.5 147t-106.5 420zM266 551q0 -217 69 -328.5t197 -111.5t198.5 112t70.5 328q0 217 -70.5 329.5t-198.5 112.5t-197 -112.5t-69 -329.5zM303 1229v94q6 6 17 14.5t45.5 22.5t70.5 14 q38 0 91 -29.5t83 -29.5q36 0 68 14.5t46 29.5l15 15v-92q-6 -6 -16 -15t-43.5 -23.5t-69.5 -14.5q-38 0 -89.5 28.5t-84.5 28.5q-36 0 -69 -14t-49 -28z" />
<glyph unicode="&#xf6;" horiz-adv-x="1062" d="M115 551q0 273 106.5 420t310.5 147t311 -147t107 -420t-107 -420t-311 -147t-310.5 147t-106.5 420zM266 551q0 -217 69 -328.5t197 -111.5t198.5 112t70.5 328q0 217 -70.5 329.5t-198.5 112.5t-197 -112.5t-69 -329.5zM324 1290q0 25 17.5 43.5t43.5 18.5 q24 0 41.5 -18.5t17.5 -43.5t-17 -43t-42 -18q-26 0 -43.5 18t-17.5 43zM608 1290q0 25 17.5 43.5t42.5 18.5q26 0 43.5 -18.5t17.5 -43.5t-17.5 -43t-43.5 -18q-25 0 -42.5 18t-17.5 43z" />
<glyph unicode="&#xf8;" horiz-adv-x="1062" d="M115 551q0 273 106.5 420t310.5 147q144 0 240 -73l57 100l68 -41l-67 -115q120 -146 120 -438q0 -273 -107 -420t-311 -147q-143 0 -240 73l-56 -98l-68 39l67 115q-120 146 -120 438zM266 551q0 -183 51 -294l383 664q-66 72 -168 72q-128 0 -197 -112.5t-69 -329.5z M365 183q65 -72 167 -72q128 0 198.5 112t70.5 328q0 186 -52 296z" />
<glyph unicode="&#xf9;" horiz-adv-x="1089" d="M160 229v873h149v-817q0 -81 42 -127.5t128 -46.5q59 0 111 20.5t89 55.5t61 66t42 66v783h150v-1102h-121l-21 172q-146 -188 -378 -188q-120 0 -186 65t-66 180zM258 1446l86 84l244 -252l-45 -49z" />
<glyph unicode="&#xfa;" horiz-adv-x="1089" d="M160 229v873h149v-817q0 -81 42 -127.5t128 -46.5q59 0 111 20.5t89 55.5t61 66t42 66v783h150v-1102h-121l-21 172q-146 -188 -378 -188q-120 0 -186 65t-66 180zM498 1278l243 252l86 -84l-284 -217z" />
<glyph unicode="&#xfb;" horiz-adv-x="1089" d="M160 229v873h149v-817q0 -81 42 -127.5t128 -46.5q59 0 111 20.5t89 55.5t61 66t42 66v783h150v-1102h-121l-21 172q-146 -188 -378 -188q-120 0 -186 65t-66 180zM303 1229l195 254h77l195 -254h-108l-125 176l-123 -176h-111z" />
<glyph unicode="&#xfc;" horiz-adv-x="1089" d="M160 229v873h149v-817q0 -81 42 -127.5t128 -46.5q59 0 111 20.5t89 55.5t61 66t42 66v783h150v-1102h-121l-21 172q-146 -188 -378 -188q-120 0 -186 65t-66 180zM336 1290q0 25 17.5 43.5t43.5 18.5q25 0 42.5 -18.5t17.5 -43.5t-17.5 -43t-42.5 -18q-26 0 -43.5 18 t-17.5 43zM621 1290q0 25 17.5 43.5t41.5 18.5q26 0 43.5 -18.5t17.5 -43.5t-17.5 -43t-43.5 -18q-25 0 -42 18t-17 43z" />
<glyph unicode="&#xfd;" horiz-adv-x="878" d="M25 1102h157l262 -914l261 914h157l-491 -1575h-156l150 483zM393 1278l244 252l86 -84l-285 -217z" />
<glyph unicode="&#xfe;" horiz-adv-x="1075" d="M160 -473v2048h149v-579q95 122 266 122q189 0 288.5 -147t99.5 -420t-99.5 -420t-288.5 -147q-171 0 -266 122v-579h-149zM309 307q63 -196 236 -196q129 0 198.5 111.5t69.5 328.5t-69.5 329.5t-198.5 112.5q-171 0 -236 -194v-492z" />
<glyph unicode="&#xff;" horiz-adv-x="878" d="M25 1102h157l262 -914l261 914h157l-491 -1575h-156l150 483zM236 1290q0 25 17.5 43.5t43.5 18.5q24 0 41.5 -18.5t17.5 -43.5t-17 -43t-42 -18q-26 0 -43.5 18t-17.5 43zM520 1290q0 25 18.5 43.5t43.5 18.5q26 0 42.5 -18.5t16.5 -43.5t-16.5 -43t-42.5 -18 q-25 0 -43.5 18t-18.5 43z" />
<glyph unicode="&#x131;" horiz-adv-x="464" d="M160 0v1102h149v-1102h-149z" />
<glyph unicode="&#x141;" horiz-adv-x="1130" d="M27 500l166 166v751h161v-590l164 164l55 -55l-219 -219v-580h764v-137h-925v555l-111 -111z" />
<glyph unicode="&#x142;" horiz-adv-x="532" d="M12 590l181 180v805h149v-655l123 122l55 -57l-178 -179v-806h-149v656l-123 -124z" />
<glyph unicode="&#x152;" horiz-adv-x="1943" d="M115 709q0 319 150.5 513.5t398.5 194.5h1243v-137h-764v-502h606v-139h-606v-502h764v-137h-1243q-248 0 -398.5 195t-150.5 514zM276 709q0 -262 104.5 -417t283.5 -155h317v1143h-317q-179 0 -283.5 -154.5t-104.5 -416.5z" />
<glyph unicode="&#x153;" horiz-adv-x="1765" d="M125 551q0 275 105 421t305 146q249 0 350 -223q99 223 348 223q200 0 307 -143.5t107 -423.5l-5 -53h-682q9 -188 80 -288.5t199 -100.5q56 0 102.5 22t76 58.5t48.5 77t29 85.5h152q-31 -177 -137.5 -272.5t-268.5 -95.5q-254 0 -355 225q-99 -225 -351 -225 q-200 0 -305 146t-105 421zM272 551q0 -217 69.5 -329.5t195.5 -112.5q128 0 199 113t71 329q0 217 -71 330.5t-199 113.5q-126 0 -195.5 -113.5t-69.5 -330.5zM960 618h533q-11 181 -78 279t-186 98q-121 0 -189.5 -97.5t-79.5 -279.5z" />
<glyph unicode="&#x160;" horiz-adv-x="1243" d="M115 1028q0 182 133 294t346 112t346 -110t133 -290h-162q0 117 -86.5 188.5t-230.5 71.5t-231 -70t-87 -184q0 -121 71.5 -185t201.5 -64h135q194 0 307 -105.5t113 -296.5q0 -182 -132 -293.5t-341 -111.5q-211 0 -347.5 110t-136.5 291h160q0 -118 87 -190t231 -72 t230.5 70t86.5 184q0 120 -72.5 185t-201.5 65h-136q-194 0 -305.5 105t-111.5 296zM369 1780h108l125 -176l125 176h109l-195 -254h-78z" />
<glyph unicode="&#x161;" horiz-adv-x="1017" d="M113 799q0 150 99 234.5t284 84.5q183 0 282 -86t99 -231h-150q0 90 -60 141t-173 51q-111 0 -171.5 -49.5t-60.5 -138.5q0 -86 53 -135t150 -49h113q148 0 238.5 -85t90.5 -231q0 -150 -98 -235.5t-283 -85.5q-183 0 -283 87t-100 232h150q0 -90 60 -141t173 -51 q111 0 171.5 49.5t60.5 138.5q0 85 -55.5 134.5t-149.5 49.5h-113q-148 0 -237.5 85t-89.5 231zM260 1483h111l123 -176l124 176h109l-192 -254h-80z" />
<glyph unicode="&#x178;" horiz-adv-x="1144" d="M20 1417h179l370 -768l369 768h178l-467 -950v-467h-162v467zM358 1587q0 25 18 43.5t44 18.5q24 0 41.5 -18.5t17.5 -43.5t-17 -43t-42 -18q-26 0 -44 18t-18 43zM643 1587q0 25 17.5 43.5t41.5 18.5q26 0 44 -18.5t18 -43.5t-18 -43t-44 -18q-25 0 -42 18t-17 43z" />
<glyph unicode="&#x17d;" horiz-adv-x="1015" d="M41 0v125l719 1155h-719v137h926v-125l-717 -1155h717v-137h-926zM272 1774h109l125 -175l123 175h108l-192 -252h-78z" />
<glyph unicode="&#x17e;" horiz-adv-x="858" d="M49 0v102l563 881h-563v119h762v-103l-561 -880h561v-119h-762zM211 1483h108l125 -176l125 176h109l-195 -254h-77z" />
<glyph unicode="&#x2c6;" horiz-adv-x="694" d="M115 1229l194 254h78l195 -254h-111l-123 176l-125 -176h-108z" />
<glyph unicode="&#x2c7;" horiz-adv-x="694" d="M115 1483h108l125 -176l123 176h111l-195 -254h-78z" />
<glyph unicode="&#x2da;" horiz-adv-x="538" d="M123 1380q0 64 42.5 107t104.5 43q64 0 106 -42.5t42 -107.5q0 -67 -41.5 -110t-106.5 -43q-62 0 -104.5 43t-42.5 110zM205 1380q0 -33 16.5 -53t48.5 -20q66 0 66 73q0 70 -66 70q-32 0 -48.5 -20t-16.5 -50z" />
<glyph unicode="&#x2dc;" horiz-adv-x="661" d="M115 1229v94q6 6 16.5 14.5t44.5 22.5t70 14q38 0 91 -29.5t83 -29.5q36 0 68 14.5t46 29.5l15 15v-92q-6 -6 -16 -15t-43.5 -23.5t-69.5 -14.5q-38 0 -89.5 28.5t-84.5 28.5q-36 0 -68.5 -14t-47.5 -28z" />
<glyph unicode="&#xe01;" horiz-adv-x="1157" d="M96 993q6 12 18.5 31t56.5 67.5t95 86t134 68t173 30.5q213 0 324 -97t111 -266v-913h-156v913q0 232 -279 232q-169 0 -319 -154l61 -92v-899h-155v897z" />
<glyph unicode="&#xe02;" horiz-adv-x="1122" d="M160 348v467q0 46 23.5 86.5t51 66t51 61.5t23.5 73v158h156v-181q0 -41 -23.5 -78.5t-51.5 -62.5t-51.5 -64t-23.5 -83v-443q0 -106 65.5 -168.5t184.5 -62.5t183.5 62.5t64.5 168.5v912h156v-912q0 -168 -108.5 -266t-295.5 -98t-296 98t-109 266z" />
<glyph unicode="&#xe03;" horiz-adv-x="1144" d="M76 1180v80h114v-80q0 -38 27.5 -66.5t65.5 -28.5t66 28.5t28 66.5v80h115v-130q0 -43 -15.5 -80t-37.5 -65t-44 -56.5t-37.5 -69.5t-15.5 -91v-420q0 -106 65.5 -168.5t184.5 -62.5t183.5 62.5t64.5 168.5v912h155v-912q0 -168 -108 -266t-295 -98t-296.5 98.5 t-109.5 265.5v420q0 22 6.5 44t13.5 37t23.5 36t25 30t30.5 31.5t28 28.5q-20 -2 -30 -2q-84 0 -145.5 60t-61.5 147z" />
<glyph unicode="&#xe04;" horiz-adv-x="1157" d="M160 0v913q0 167 114 265t310 98t310 -98t114 -265v-913h-156v913q0 106 -70 169t-198 63t-198.5 -63t-70.5 -169v-372h283v-133h-283v-408h-155z" />
<glyph unicode="&#xe05;" horiz-adv-x="1257" d="M160 0v993q0 130 70.5 206.5t187.5 76.5l212 -216l218 216q119 0 186.5 -76t67.5 -207v-993h-156v969q0 119 -77 159l-183 -190h-111l-183 191q-77 -42 -77 -160v-428h291v-131h-291v-410h-155z" />
<glyph unicode="&#xe06;" horiz-adv-x="1189" d="M82 1180v80h113v-80q0 -38 28 -66.5t66 -28.5t66 28.5t28 66.5v80h113v-130q0 -43 -15.5 -80t-37.5 -65t-44 -56.5t-37.5 -69.5t-15.5 -91v-451q38 -48 81.5 -88t119 -76t155.5 -36q92 0 137.5 45t45.5 125v973h155v-1035q0 -115 -69 -178t-197 -63q-253 0 -434 203 l-23 -187h-127v768q0 22 6.5 44t13 36.5t24 36.5t25 30t31.5 31.5t28 28.5q-18 -2 -29 -2q-84 0 -145.5 60t-61.5 147z" />
<glyph unicode="&#xe07;" horiz-adv-x="1097" d="M47 1260h158l163 -1129h150q106 0 179.5 69.5t106 180t32.5 252.5q0 230 -82.5 365t-239.5 135h-61v133h69q225 0 347 -167t122 -466q0 -188 -53.5 -329.5t-162 -222.5t-259.5 -81h-285z" />
<glyph unicode="&#xe08;" horiz-adv-x="1165" d="M115 631h174l214 -500h91q81 0 142 40.5t97.5 111.5t54 160.5t17.5 195.5q0 228 -87.5 367t-250.5 139q-98 0 -177 -64t-120 -196h-155q45 183 163.5 287t290.5 104q231 0 360.5 -174t129.5 -463q0 -292 -121 -465.5t-344 -173.5h-203z" />
<glyph unicode="&#xe09;" horiz-adv-x="1157" d="M160 225v406h155v-344q0 -80 44.5 -125t136.5 -45q200 0 356 199v602q0 115 -73.5 171t-194.5 56t-195 -56.5t-74 -170.5v-31h-155v31q0 173 118 265.5t306 92.5t306 -92.5t118 -265.5v-918h-125l-25 188q-182 -204 -434 -204q-128 0 -196 63t-68 178z" />
<glyph unicode="&#xe0a;" horiz-adv-x="1114" d="M154 348v467q0 37 15.5 70.5t38 58t44.5 48.5t37.5 52t15.5 58v158h156v-181q0 -33 -15.5 -63.5t-38 -54.5l-45 -48t-38 -55.5t-15.5 -66.5v-443q0 -106 65.5 -168.5t184.5 -62.5t184.5 62.5t65.5 168.5v244q0 60 -33 93.5t-90 33.5h-113v131h113q56 0 89.5 36t33.5 93 v281h156v-271q0 -146 -104 -206q104 -60 104 -203v-232q0 -167 -109.5 -265.5t-296.5 -98.5t-296 98t-109 266z" />
<glyph unicode="&#xe0b;" horiz-adv-x="1124" d="M55 1180v80h115v-80q0 -38 28 -66.5t66 -28.5t66 28.5t28 66.5v80h115v-130q0 -43 -15.5 -80t-37.5 -65t-44.5 -56.5t-38 -69.5t-15.5 -91v-420q0 -106 65 -168.5t184 -62.5t183.5 62.5t64.5 168.5l2 244q0 61 -35 94t-90 33h-110v131h110q58 0 91.5 37t33.5 92l-2 281 h158v-271q0 -149 -105 -205q105 -58 105 -204v-232q0 -167 -109.5 -265.5t-296.5 -98.5t-296 98t-109 266v420q0 22 6.5 44t13 36.5t24 36.5t25 30t31.5 31.5t28 28.5q-18 -2 -30 -2q-84 0 -146.5 60t-62.5 147z" />
<glyph unicode="&#xe0c;" horiz-adv-x="1753" d="M96 993q6 12 18.5 31t56.5 67.5t95 86t134 68t173 30.5q213 0 324 -97t111 -266v-619q115 -177 268 -177q82 0 123 46.5t41 127.5v969h157v-1031q0 -115 -65 -180t-184 -65q-201 0 -349 173l-20 -157h-127v913q0 232 -279 232q-169 0 -319 -154l61 -92v-704q0 -64 64 -64 h63v-131h-110q-83 0 -127.5 41t-44.5 123v733z" />
<glyph unicode="&#xe0d;" horiz-adv-x="1753" d="M96 993q6 12 18.5 31t56.5 67.5t95 86t134 68t173 30.5q213 0 324 -97t111 -266v-622q0 -81 40.5 -127.5t122.5 -46.5q154 0 271 180v963h153v-1416q0 -155 -97.5 -243t-260.5 -88t-261.5 88t-98.5 243v93h155v-91q0 -102 58.5 -152t146.5 -50t146.5 50t58.5 152v302 q-145 -164 -340 -164q-119 0 -184.5 65t-65.5 180v684q0 232 -279 232q-169 0 -319 -154l61 -92v-704q0 -64 64 -64h63v-131h-110q-83 0 -127.5 41t-44.5 123v733z" />
<glyph unicode="&#xe0e;" horiz-adv-x="1157" d="M37 0v131h59q64 0 64 64v702l-64 96q6 12 18.5 31t56.5 67.5t95 86t134 68t173 30.5q213 0 324 -97t111 -266v-1386h-144q0 111 -74 167t-182 56q-105 0 -180.5 -56.5t-75.5 -166.5h-155q0 163 112 259.5t281 96.5q161 0 262 -86v1116q0 232 -279 232q-169 0 -319 -154 l61 -92v-735q0 -82 -45.5 -123t-128.5 -41h-104z" />
<glyph unicode="&#xe0f;" horiz-adv-x="1159" d="M39 0v131h61q64 0 64 64v702l-64 96q6 12 18.5 31t57 67.5t95 86t134 68t173.5 30.5q213 0 323.5 -97t110.5 -266v-1386h-146q0 111 -53.5 167t-132.5 56q-80 0 -135.5 -56t-55.5 -167h-147q0 106 -46 164.5t-124 58.5v133q55 0 99 -15.5t73 -42.5t46 -52t29 -54 q75 164 255 164q108 0 182 -65v1095q0 232 -278 232q-174 0 -323 -156l62 -90v-735q0 -82 -44.5 -123t-127.5 -41h-106z" />
<glyph unicode="&#xe10;" horiz-adv-x="1165" d="M115 631h174l214 -500h91q81 0 142 40.5t97.5 111.5t54 160.5t17.5 195.5q0 228 -87.5 367t-250.5 139q-98 0 -177 -64t-120 -196h-155q45 183 163.5 287t290.5 104q162 0 276 -88q89 50 89 168h125q0 -159 -147 -231q147 -173 147 -486q0 -292 -121 -465.5t-344 -173.5 h-203zM168 -174q55 0 100 -13.5t73.5 -36t45.5 -43.5t28 -45q72 138 255 138q112 0 190 -61v118h148v-356h-146q0 92 -54.5 138t-133.5 46t-134 -46t-55 -138h-147q0 86 -49 135t-121 49v115z" />
<glyph unicode="&#xe11;" horiz-adv-x="1189" d="M82 1180v80h113v-80q0 -38 28 -66.5t66 -28.5t66 28.5t28 66.5v80h113v-80q0 -8 -2 -24q157 120 292 120q124 0 189 -62t65 -165v-1049h-155v987q0 76 -45.5 117t-128.5 41q-119 0 -240 -117q-125 -119 -125 -231v-797h-156v758q0 99 104 215h-5q-86 0 -146.5 60.5 t-60.5 146.5z" />
<glyph unicode="&#xe12;" horiz-adv-x="1847" d="M123 639q0 138 18 249.5t47.5 182.5t69.5 118.5t81 67t85 19.5l208 -217l208 217q123 0 194.5 -76t71.5 -207v-704q120 -174 272 -174q83 0 124.5 46.5t41.5 127.5v971h156v-1035q0 -114 -65 -177.5t-183 -63.5q-200 0 -350 171l-25 -155h-127v965q0 128 -85 167 l-185 -196h-92l-182 188q-127 -91 -127 -485q0 -264 74.5 -387t207.5 -123h53v-131h-79q-194 0 -303 156.5t-109 484.5z" />
<glyph unicode="&#xe13;" horiz-adv-x="1740" d="M84 993q6 12 18.5 31t56.5 67.5t95 86t134 68t173 30.5q213 0 323.5 -97t110.5 -266v-622q0 -81 41 -127.5t123 -46.5q153 0 268 177v966h156v-1260h-125l-21 157q-148 -173 -350 -173q-119 0 -183 65t-64 180v684q0 232 -279 232q-171 0 -320 -153l62 -93v-704 q0 -64 62 -64h65v-131h-111q-83 0 -127.5 41t-44.5 123v733z" />
<glyph unicode="&#xe14;" horiz-adv-x="1167" d="M115 639q0 184 60.5 327.5t176.5 226.5t269 83q205 0 300 -97t95 -272v-907h-156v907q0 114 -55 176t-182 62q-156 0 -254.5 -138t-98.5 -368q0 -245 81 -376.5t208 -131.5h55v-131h-71q-194 0 -311 162t-117 477z" />
<glyph unicode="&#xe15;" horiz-adv-x="1257" d="M125 637q0 139 18 250t47 182.5t68.5 119t80.5 67.5t85 20l209 -218l207 218q123 0 194.5 -76t71.5 -207v-993h-156v965q0 127 -83 166l-181 -195h-102l-179 186q-124 -94 -124 -485q0 -508 280 -508h53v-131h-79q-94 0 -168 36.5t-129 112t-84 199.5t-29 291z" />
<glyph unicode="&#xe16;" horiz-adv-x="1159" d="M98 993q6 12 18.5 31t56.5 67.5t95 86t134 68t173 30.5q213 0 324 -97t111 -266v-913h-156v913q0 232 -279 232q-170 0 -320 -154l60 -92v-704q0 -64 64 -64h65v-131h-110q-83 0 -127.5 41t-44.5 123v733z" />
<glyph unicode="&#xe17;" horiz-adv-x="1157" d="M160 0v1260h125l23 -187q180 203 433 203q128 0 197.5 -63t69.5 -177v-1036h-156v973q0 80 -45 126t-137 46q-61 0 -118.5 -19.5t-102.5 -51.5t-76.5 -63t-57.5 -65v-946h-155z" />
<glyph unicode="&#xe18;" horiz-adv-x="1107" d="M119 909q0 166 111.5 266.5t310.5 100.5q198 0 307.5 -99.5t109.5 -261.5h-155q0 107 -71.5 168.5t-192.5 61.5q-123 0 -194 -60t-71 -159t62 -159t176 -60h160q133 0 209.5 -75t76.5 -206v-299q0 -51 -37.5 -89t-89.5 -38h-681v395h155v-264h428q30 0 50 22t20 52v196 q0 66 -42 109t-102 43h-174q-166 0 -266 96t-100 260z" />
<glyph unicode="&#xe19;" horiz-adv-x="1157" d="M160 225v1035h155v-973q0 -80 44.5 -125t136.5 -45q80 0 155.5 36t119 76t81.5 88v943h156v-1260h-125l-25 187q-179 -203 -432 -203q-128 0 -197 63t-69 178z" />
<glyph unicode="&#xe1a;" horiz-adv-x="1157" d="M160 348v912h155v-912q0 -106 70.5 -168.5t198.5 -62.5t198 62.5t70 168.5v912h156v-912q0 -168 -114 -266t-310 -98t-310 98t-114 266z" />
<glyph unicode="&#xe1b;" horiz-adv-x="1157" d="M160 348v912h155v-912q0 -106 70.5 -168.5t198.5 -62.5t198 62.5t70 168.5v1385h156v-1385q0 -168 -114 -266t-310 -98t-310 98t-114 266z" />
<glyph unicode="&#xe1c;" horiz-adv-x="1257" d="M160 266v826q0 83 46 124t128 41h139v-131h-94q-64 0 -64 -63v-772q0 -99 54 -146l225 402h76l223 -405q53 43 53 149v969h156v-994q0 -131 -67.5 -206.5t-188.5 -75.5l-214 409l-214 -409q-118 0 -188 76t-70 206z" />
<glyph unicode="&#xe1d;" horiz-adv-x="1257" d="M160 266v826q0 83 45.5 125.5t128.5 42.5h139v-134h-94q-64 0 -64 -61v-774q0 -98 54 -145l225 401h76l222 -405q54 44 54 149v1442h156v-1467q0 -131 -67.5 -206.5t-188.5 -75.5l-214 409l-214 -409q-118 0 -188 76t-70 206z" />
<glyph unicode="&#xe1e;" horiz-adv-x="1282" d="M20 1260h154l201 -1016l213 1016h112l211 -1016l199 1016h154l-256 -1260h-158l-207 969l-207 -969h-160z" />
<glyph unicode="&#xe1f;" horiz-adv-x="1282" d="M20 1260h156l199 -1016l213 1016h112l211 -1016l301 1517h154l-356 -1761h-160l-205 969l-209 -969h-160z" />
<glyph unicode="&#xe20;" horiz-adv-x="1157" d="M37 0v129h59q64 0 64 64v704l-64 96q6 12 18.5 31t56.5 67.5t95 86t134 68t173 30.5q213 0 324 -97t111 -266v-913h-156v913q0 232 -279 232q-169 0 -319 -154l61 -92v-735q0 -82 -45.5 -123t-128.5 -41h-104z" />
<glyph unicode="&#xe21;" horiz-adv-x="1157" d="M160 0v1260h155v-944q26 -34 57.5 -65t76.5 -63t102.5 -51.5t118.5 -19.5q92 0 137 45t45 125v973h156v-1035q0 -115 -69.5 -178t-197.5 -63q-253 0 -432 203l-24 -187h-125z" />
<glyph unicode="&#xe22;" horiz-adv-x="1167" d="M115 358q0 104 48.5 182.5t113.5 117.5q-67 34 -114.5 107t-47.5 185q0 134 85.5 222t227.5 88h127v-132h-94q-84 0 -137.5 -59t-53.5 -143t50 -141.5t141 -57.5h94v-131h-84q-83 0 -142 -71.5t-59 -166.5q0 -106 74.5 -173.5t220.5 -67.5t220.5 67.5t74.5 173.5v902h156 v-902q0 -168 -120 -271t-331 -103q-212 0 -331 102.5t-119 271.5z" />
<glyph unicode="&#xe23;" horiz-adv-x="1097" d="M115 909q0 166 112.5 266.5t311.5 100.5q198 0 307.5 -99.5t109.5 -261.5h-155q0 107 -71.5 168.5t-192.5 61.5q-123 0 -194 -60t-71 -159q0 -100 61.5 -159.5t176.5 -59.5h108q168 0 268.5 -96t100.5 -259q0 -166 -110.5 -267t-309.5 -101q-198 0 -309 100t-111 262h156 q0 -105 71.5 -166t192.5 -61q123 0 193.5 59t70.5 158q0 97 -65.5 157t-173.5 60h-107q-168 0 -269 96.5t-101 259.5z" />
<glyph unicode="&#xe24;" horiz-adv-x="1157" d="M96 993q6 12 18.5 31t56.5 67.5t95 86t134 68t173 30.5q213 0 324 -97t111 -266v-1386h-156v1386q0 232 -279 232q-169 0 -319 -154l61 -92v-704q0 -64 64 -64h63v-131h-110q-83 0 -127.5 41t-44.5 123v733z" />
<glyph unicode="&#xe25;" horiz-adv-x="1148" d="M115 336q0 154 89.5 244t241.5 90h396v248q0 114 -74 170.5t-195 56.5t-194.5 -56t-73.5 -171v-31h-155v31q0 174 117.5 266t305.5 92t306 -92.5t118 -265.5v-918h-155v537h-361q-97 0 -154 -52.5t-57 -148.5q0 -97 57 -151t154 -54h88v-131h-123q-152 0 -241.5 91 t-89.5 245z" />
<glyph unicode="&#xe26;" horiz-adv-x="1157" d="M37 0v131h59q64 0 64 64v702l-64 96q6 12 18.5 31t56.5 67.5t95 86t134 68t173 30.5q213 0 324 -97t111 -266v-1386h-156v1386q0 232 -279 232q-169 0 -319 -154l61 -92v-735q0 -82 -45.5 -123t-128.5 -41h-104z" />
<glyph unicode="&#xe27;" horiz-adv-x="1159" d="M109 885q45 186 162.5 288.5t293.5 102.5q227 0 357.5 -174t130.5 -471t-130.5 -472t-355.5 -175q-173 0 -291 103.5t-163 289.5h157q36 -122 112.5 -191t184.5 -69q158 0 244 140.5t86 373.5t-87.5 373.5t-246.5 140.5q-110 0 -185.5 -68.5t-113.5 -191.5h-155z" />
<glyph unicode="&#xe28;" horiz-adv-x="1157" d="M160 0v913q0 167 114 265t310 98q174 0 283 -77q61 51 61 157h125q0 -148 -117 -221q72 -90 72 -222v-913h-156v913q0 106 -70 169t-198 63t-198.5 -63t-70.5 -169v-372h283v-133h-283v-408h-155z" />
<glyph unicode="&#xe29;" horiz-adv-x="1163" d="M160 348v912h155v-912q0 -106 70.5 -168.5t198.5 -62.5t198 62.5t70 168.5v279h-285v133h285v500h156v-500h59v-133h-59v-279q0 -168 -114 -266t-310 -98t-310 98t-114 266z" />
<glyph unicode="&#xe2a;" horiz-adv-x="1148" d="M115 336q0 154 89.5 244t241.5 90h396v248q0 114 -74 170.5t-195 56.5t-194.5 -56t-73.5 -171v-31h-155v31q0 174 117.5 266t305.5 92q171 0 282 -75q60 54 60 155h127q0 -143 -115 -220q70 -87 70 -218v-918h-155v537h-361q-97 0 -154 -52.5t-57 -148.5q0 -97 57 -151 t154 -54h88v-131h-123q-152 0 -241.5 91t-89.5 245z" />
<glyph unicode="&#xe2b;" horiz-adv-x="1163" d="M160 0v1260h155v-510h397l179 510h166l-184 -520q65 -18 100 -68.5t35 -128.5v-543h-156v514q0 51 -27 75.5t-73 24.5h-437v-614h-155z" />
<glyph unicode="&#xe2c;" horiz-adv-x="1282" d="M20 1260h154l201 -1016l211 1016h110l209 -1016l193 966q2 16 2 22q0 34 -21 53.5t-59 19.5h-172v77h217q28 0 50 19t28 47l26 127h154l-33 -156q-7 -34 -30 -54t-42 -23l-20 -3q7 -1 17.5 -4t27.5 -20t17 -43q0 -10 -3 -21l-253 -1251h-160l-203 969l-205 -969h-160z " />
<glyph unicode="&#xe2d;" horiz-adv-x="1165" d="M115 545v129h501v-131h-346q1 -195 83.5 -310.5t234.5 -115.5q153 0 235 140t82 374q0 233 -87.5 373.5t-246.5 140.5q-110 0 -186.5 -68.5t-114.5 -191.5h-155q45 186 162.5 288.5t293.5 102.5q227 0 357.5 -174t130.5 -471q0 -298 -126 -472.5t-345 -174.5 q-218 0 -345.5 153.5t-127.5 407.5z" />
<glyph unicode="&#xe2e;" horiz-adv-x="1165" d="M115 545v129h501v-131h-346q1 -195 83.5 -310.5t234.5 -115.5q153 0 235 140t82 374q0 233 -88.5 373.5t-247.5 140.5q-110 0 -185.5 -68.5t-113.5 -191.5h-155q45 186 162.5 288.5t293.5 102.5q158 0 274 -89q89 50 89 169h125q0 -160 -148 -232q148 -174 148 -493 q0 -298 -126 -472.5t-345 -174.5q-218 0 -345.5 153.5t-127.5 407.5z" />
<glyph unicode="&#xe2f;" horiz-adv-x="1165" d="M119 926q0 155 88.5 244.5t241.5 89.5h122v-132h-86q-97 0 -154 -52.5t-57 -149.5q0 -96 57 -148.5t154 -52.5h375v535h156v-1260h-156v590h-411q-152 0 -241 91t-89 245z" />
<glyph unicode="&#xe30;" horiz-adv-x="878" d="M115 412v112h151v-84q0 -61 62 -61h436v-133h-477q-84 0 -128 42.5t-44 123.5zM115 932v110h151v-81q0 -64 62 -64h436v-131h-477q-84 0 -128 42.5t-44 123.5z" />
<glyph unicode="&#xe31;" d="M-606 1585v152h153v-99q0 -51 52 -51h485v-119h-573q-55 0 -86 32t-31 85z" />
<glyph unicode="&#xe32;" horiz-adv-x="827" d="M31 1061v137q5 3 14.5 8.5t41 19t65.5 23.5t87 18.5t107 8.5q155 0 242.5 -73t87.5 -212v-991h-158v944q0 99 -55.5 150t-153.5 51q-69 0 -138.5 -21t-104.5 -42z" />
<glyph unicode="&#xe33;" horiz-adv-x="833" d="M-342 1618q0 62 42 105.5t103 43.5q62 0 107 -44t45 -105t-45 -105.5t-107 -44.5q-61 0 -103 44t-42 106zM-260 1618q0 -26 18.5 -44t44.5 -18t44 18t18 44t-18 43.5t-44 17.5t-44.5 -17.5t-18.5 -43.5zM31 1061v137q5 3 14.5 8.5t41 19t65.5 23.5t87 18.5t107 8.5 q155 0 242.5 -73t87.5 -212v-991h-158v944q0 99 -55.5 150t-153.5 51q-69 0 -138.5 -21t-104.5 -42z" />
<glyph unicode="&#xe34;" d="M-965 1468v119h807v-119h-807z" />
<glyph unicode="&#xe35;" d="M-965 1468v119h676v178h131v-297h-807z" />
<glyph unicode="&#xe36;" d="M-965 1468v123h509q-3 13 -3 29q0 61 45 105t107 44q61 0 105 -43.5t44 -105.5t-44 -107t-105 -45h-658zM-373 1620q0 -27 19.5 -46.5t46.5 -19.5q26 0 42.5 19.5t16.5 46.5t-16.5 45t-42.5 18q-28 0 -47 -18.5t-19 -44.5z" />
<glyph unicode="&#xe37;" d="M-965 1470v119h449v178h110v-178h117v178h131v-297h-807z" />
<glyph unicode="&#xe38;" d="M-426 -207h150q53 0 85.5 -32t32.5 -87v-409h-143v346q0 26 -10 37.5t-35 11.5h-80v133z" />
<glyph unicode="&#xe39;" d="M-748 -207h150q52 0 85.5 -32.5t33.5 -86.5v-295h125q69 0 69 70v344h131v-391q0 -62 -37 -98.5t-98 -36.5h-321v356q0 49 -49 49h-89v121z" />
<glyph unicode="&#xe3a;" d="M-344 -289q0 38 27 65t65 27t65 -27t27 -65t-27 -65t-65 -27t-65 27t-27 65z" />
<glyph unicode="&#xe3f;" horiz-adv-x="1275" d="M160 0v1417h405v158h78v-158h57q162 0 273.5 -100.5t111.5 -278.5q0 -200 -144 -303q104 -36 166 -127.5t62 -228.5q0 -119 -53.5 -207t-137.5 -130t-185 -42h-150v-158h-78v158h-405zM322 137h243v502h-243v-502zM322 778h243v502h-243v-502zM643 137h88q104 0 175 65.5 t71 186.5q0 123 -62.5 186.5t-164.5 63.5h-107v-502zM643 778h29q109 0 180.5 64t71.5 186q0 123 -71.5 187.5t-180.5 64.5h-29v-502z" />
<glyph unicode="&#xe40;" horiz-adv-x="471" d="M160 0v1260h155v-1260h-155z" />
<glyph unicode="&#xe41;" horiz-adv-x="909" d="M160 0v1260h155v-1260h-155zM600 0v1260h156v-1260h-156z" />
<glyph unicode="&#xe42;" horiz-adv-x="536" d="M-18 1534v199h643v-131h-484v-39q0 -45 24.5 -81.5t59 -63t69 -55.5t59 -74t24.5 -103v-1002q0 -63 63 -63h60v-133h-105q-83 0 -128.5 42t-45.5 124v1032q0 38 -17.5 71t-44.5 56t-57.5 48.5t-57.5 48t-44.5 55t-17.5 69.5z" />
<glyph unicode="&#xe43;" horiz-adv-x="499" d="M-27 1495v137q5 5 15 13t43.5 28t69.5 35.5t92.5 28t113.5 12.5q151 0 227 -67.5t76 -180.5q0 -55 -14.5 -100t-38 -76t-51.5 -57.5t-56 -51.5t-51.5 -52.5t-38 -65.5t-14.5 -84v-830q0 -63 64 -63h59v-133h-104q-83 0 -127.5 42t-44.5 124v893q0 52 19.5 96t49 72 t63.5 58.5t63.5 57t49 65.5t19.5 85q0 60 -46.5 97.5t-142.5 37.5q-47 0 -94.5 -12.5t-82 -30t-62.5 -35.5t-42 -30z" />
<glyph unicode="&#xe44;" horiz-adv-x="518" d="M-43 1602v131h643v-199q0 -37 -18 -69.5t-44.5 -55t-57.5 -48t-57.5 -48.5t-44.5 -56t-18 -71v-1002q0 -63 64 -63h59v-133h-106q-83 0 -127.5 42t-44.5 124v1032q0 43 13 78.5t33.5 60t45.5 46t50.5 41t46 40.5t33.5 49t13 62v39h-483z" />
<glyph unicode="&#xe45;" horiz-adv-x="835" d="M51 1061v137q5 3 14.5 8.5t41 19t66 23.5t87.5 18.5t107 8.5q155 0 241 -73t86 -212v-1464h-155v1417q0 99 -55.5 150t-153.5 51q-69 0 -139 -21t-105 -42z" />
<glyph unicode="&#xe46;" horiz-adv-x="1253" d="M123 836q0 95 18 172t47.5 126t69.5 82t81 46.5t85 13.5l207 -216l207 216q123 0 194.5 -76t71.5 -207v-1466h-154v1442q0 127 -87 164l-195 -195h-70l-194 194q-125 -56 -125 -292q0 -312 280 -312h53v-129h-80q-192 0 -300.5 107.5t-108.5 329.5z" />
<glyph unicode="&#xe47;" d="M-881 1661q0 84 45.5 138t114.5 54h428v-92h-391q-44 0 -69 -28t-25 -74q0 -35 19 -61t55 -33l88 92h73l88 -92q60 9 60 65v76h102v-86q0 -74 -49 -117t-129 -43l-108 122l-105 -122q-85 0 -141 53.5t-56 147.5z" />
<glyph unicode="&#xe48;" d="M-291 1892v355h131v-355h-131z" />
<glyph unicode="&#xe49;" d="M-563 2083v121h203q30 0 49.5 -21.5t19.5 -48.5v-121h363v-121h-496v158q0 12 -10 22.5t-23 10.5h-106z" />
<glyph unicode="&#xe4a;" d="M-631 1892v201q0 68 38 108t108 40l80 -106l79 106q69 0 106.5 -39.5t37.5 -108.5v-102h14q22 0 38.5 15.5t16.5 37.5v180h103v-215q0 -50 -33 -83.5t-82 -33.5h-160v201q0 37 -18 54l-59 -93h-84l-62 94q-20 -17 -20 -55v-201h-103z" />
<glyph unicode="&#xe4b;" d="M-403 2013v117h116v121h133v-121h117v-117h-117v-121h-133v121h-116z" />
<glyph unicode="&#xe4c;" d="M-479 1739v162q0 53 32 84.5t87 31.5h364v-121h-299q-51 0 -51 -51v-106h-133z" />
<glyph unicode="&#xe4d;" d="M-358 1618q0 62 42 105.5t103 43.5q62 0 107 -44t45 -105t-45 -105.5t-107 -44.5q-61 0 -103 44t-42 106zM-274 1618q0 -26 17.5 -44t43.5 -18t43.5 18t17.5 44t-17.5 43.5t-43.5 17.5t-43.5 -17.5t-17.5 -43.5z" />
<glyph unicode="&#xe4e;" d="M-557 1468v125q0 48 31 79.5t80 31.5h127v76q0 48 29.5 78t78.5 30h234v-106h-173q-51 0 -51 -49v-136h-180q-49 0 -49 -49v-80h-127z" />
<glyph unicode="&#xe4f;" horiz-adv-x="1525" d="M119 631q0 175 86.5 323.5t235 235t323.5 86.5t324 -86.5t236 -235t87 -323.5t-87 -324t-236 -236t-324 -87t-323.5 87t-235 236t-86.5 324zM227 631q0 -146 72 -269.5t195.5 -195.5t269.5 -72t270 72t196.5 195.5t72.5 269.5t-72.5 269.5t-196.5 195t-270 71.5 t-269.5 -71.5t-195.5 -195t-72 -269.5zM465 631q0 125 87.5 212t211.5 87t211.5 -87t87.5 -212t-87.5 -212t-211.5 -87t-211.5 87t-87.5 212zM549 631q0 -89 63 -152t152 -63t152 63t63 152t-63 151t-152 62t-152 -62t-63 -151z" />
<glyph unicode="&#xe50;" horiz-adv-x="1110" d="M115 551q0 271 116 419t326 148t325 -148t115 -419t-115 -419t-325 -148t-326 148t-116 419zM266 551q0 -215 77.5 -327.5t213.5 -112.5t213.5 112.5t77.5 327.5q0 216 -77.5 329t-213.5 113t-213.5 -113t-77.5 -329z" />
<glyph unicode="&#xe51;" horiz-adv-x="1110" d="M115 711q0 181 118.5 294t315.5 113q201 0 324.5 -143t123.5 -385q0 -180 -48.5 -325t-136 -241t-208.5 -147t-266 -51v127q233 0 371.5 167.5t138.5 469.5q0 188 -83 295.5t-220 107.5q-128 0 -203.5 -76.5t-75.5 -207.5q0 -124 64 -205.5t184 -81.5h16v-107h-45 q-177 0 -273.5 109t-96.5 287z" />
<glyph unicode="&#xe52;" horiz-adv-x="1325" d="M160 375v1200h149v-1176q0 -128 87.5 -208t271.5 -80t271 79.5t87 208.5v443q0 121 -77 146l-193 -222h-90v59q0 168 -168 168v125q58 0 104.5 -19.5t73.5 -52.5t42.5 -68t20.5 -73l187 213q116 0 184 -75.5t66 -200.5v-467q0 -175 -127.5 -283t-380.5 -108t-380.5 108 t-127.5 283z" />
<glyph unicode="&#xe53;" horiz-adv-x="1175" d="M123 561q0 121 18 219t47.5 160.5t67.5 104.5t76.5 59.5t77.5 17.5l187 -193l185 193q109 0 177.5 -67.5t68.5 -180.5v-874h-149v850q0 107 -73 143l-159 -170h-90l-162 166q-123 -81 -123 -422q0 -226 70 -333t188 -107h45v-125h-71q-172 0 -276.5 137t-104.5 422z" />
<glyph unicode="&#xe54;" horiz-adv-x="1234" d="M115 551q0 264 113.5 407.5t324.5 143.5h321q38 0 64.5 27t26.5 65v381h149v-440q0 -65 -47 -111.5t-111 -46.5h-389q-145 0 -223 -110.5t-78 -315.5q0 -206 78 -316t223 -110h135v352q0 56 42 96.5t96 40.5h274v-125h-215q-29 0 -50.5 -21t-21.5 -50v-293h287v-125h-561 q-211 0 -324.5 143.5t-113.5 407.5z" />
<glyph unicode="&#xe55;" horiz-adv-x="1247" d="M125 551q0 213 74 348.5t214 180.5q-58 27 -93 82.5t-35 123.5q0 94 65 159.5t160 65.5q94 0 160.5 -65.5t66.5 -159.5q0 -56 -25 -104.5t-69 -79.5h238q37 0 63.5 26.5t26.5 63.5v383h151v-445q0 -64 -46 -109.5t-111 -45.5h-392q-145 0 -223 -109.5t-78 -314.5 q0 -207 78 -317.5t223 -110.5h136v354q0 56 42.5 96.5t94.5 40.5h276v-125h-215q-30 0 -50.5 -20.5t-20.5 -50.5v-295h286v-123h-561q-210 0 -323 143t-113 408zM391 1286q0 -47 36 -82t83 -35t83 35t36 82t-36 82t-83 35t-83 -35t-36 -82z" />
<glyph unicode="&#xe56;" horiz-adv-x="1134" d="M16 1460v131h105q81 0 124.5 -42t43.5 -124v-443q111 136 303 136q197 0 313.5 -149.5t116.5 -417.5q0 -267 -123 -417t-326 -150q-164 0 -284 97.5t-150 272.5h150q25 -110 102 -176.5t180 -66.5q137 0 219 113.5t82 326.5q0 214 -82.5 328t-218.5 114 q-108 0 -182.5 -66t-99.5 -177h-150q1 2 1 170l-1 477q0 63 -63 63h-60z" />
<glyph unicode="&#xe57;" horiz-adv-x="1638" d="M127 559q0 121 18 219t47 160t67.5 103.5t76.5 59t78 17.5l184 -192l188 192q109 0 177.5 -67t68.5 -179v-749h166q62 0 108 45t46 108v1301h149v-1339q0 -98 -69 -168t-166 -70h-385v848q0 107 -70 142l-162 -169h-90l-162 164q-123 -85 -123 -424q0 -226 70 -333 t188 -107h46v-121h-72q-82 0 -149.5 32t-119.5 97.5t-81 174.5t-29 255z" />
<glyph unicode="&#xe58;" horiz-adv-x="1171" d="M125 541q0 283 103 420t274 137h268q37 0 63.5 26.5t26.5 63.5v391h150v-453q0 -64 -45.5 -108.5t-110.5 -44.5h-326q-117 0 -186.5 -105t-69.5 -329q0 -321 111 -414l174 223h86l170 -232q61 37 61 136v379h150v-400q0 -113 -68 -180t-178 -67l-183 255l-185 -255 q-39 0 -77 17t-76 59t-67 104t-47 159.5t-18 217.5z" />
<glyph unicode="&#xe59;" horiz-adv-x="1429" d="M115 551q0 249 123.5 408t326.5 159q287 0 386 -252h132q38 0 64.5 27t26.5 65v617h149v-676q0 -65 -46.5 -111.5t-111.5 -46.5h-179l163 -741h-154l-164 748q-52 245 -266 245q-132 0 -215.5 -117.5t-83.5 -320.5q0 -209 85.5 -319.5t230.5 -110.5h41v-125h-64 q-205 0 -324.5 139t-119.5 412z" />
<glyph unicode="&#xe5a;" horiz-adv-x="1554" d="M129 926q0 154 89 244t241 90h123v-132h-86q-97 0 -154 -52.5t-57 -149.5q0 -96 57 -148.5t154 -52.5h374v535h156v-1260h-156v590h-411q-152 0 -241 91t-89 245zM1245 0v1260h154v-1260h-154z" />
<glyph unicode="&#xe5b;" horiz-adv-x="2629" d="M115 678q0 264 140.5 431t358.5 167q211 0 339 -155t128 -404v-86h-155v86q0 195 -90 311.5t-226 116.5q-147 0 -243.5 -126.5t-96.5 -340.5q0 -262 133 -411.5t359 -149.5q102 0 191 37.5t153 102t110.5 149t69.5 180.5t23 194v78h155v-98q0 -132 66 -206.5t162 -74.5 t161.5 74.5t65.5 206.5v98h156v-53q0 -105 47.5 -146t134.5 -41h260v-131h-260q-148 0 -220 77q-18 -43 -45 -79t-67 -68t-98 -50.5t-127 -18.5q-101 0 -172 42t-112 109q-24 -75 -62.5 -145t-98 -138.5t-131.5 -119t-170.5 -81.5t-208.5 -31q-290 0 -460 186.5t-170 507.5z " />
<glyph unicode="&#x2000;" horiz-adv-x="1125" />
<glyph unicode="&#x2001;" horiz-adv-x="2251" />
<glyph unicode="&#x2002;" horiz-adv-x="1125" />
<glyph unicode="&#x2003;" horiz-adv-x="2251" />
<glyph unicode="&#x2004;" horiz-adv-x="750" />
<glyph unicode="&#x2005;" horiz-adv-x="562" />
<glyph unicode="&#x2006;" horiz-adv-x="375" />
<glyph unicode="&#x2007;" horiz-adv-x="375" />
<glyph unicode="&#x2008;" horiz-adv-x="281" />
<glyph unicode="&#x2009;" horiz-adv-x="450" />
<glyph unicode="&#x200a;" horiz-adv-x="125" />
<glyph unicode="&#x2010;" horiz-adv-x="1015" d="M115 492v120h794v-120h-794z" />
<glyph unicode="&#x2011;" horiz-adv-x="1015" d="M115 492v120h794v-120h-794z" />
<glyph unicode="&#x2012;" horiz-adv-x="1015" d="M115 492v120h794v-120h-794z" />
<glyph unicode="&#x2013;" horiz-adv-x="1185" d="M115 492v120h958v-120h-958z" />
<glyph unicode="&#x2014;" horiz-adv-x="1331" d="M115 492v120h1110v-120h-1110z" />
<glyph unicode="&#x2018;" horiz-adv-x="462" d="M115 936l129 481h108l-82 -481h-155z" />
<glyph unicode="&#x2019;" horiz-adv-x="462" d="M115 936l84 481h153l-129 -481h-108z" />
<glyph unicode="&#x201a;" horiz-adv-x="462" d="M115 -168l84 483h153l-129 -483h-108z" />
<glyph unicode="&#x201b;" horiz-adv-x="462" d="M115 1417h155l82 -481h-108z" />
<glyph unicode="&#x201e;" horiz-adv-x="761" d="M115 -168l82 483h155l-131 -483h-106zM412 -168l84 483h155l-129 -483h-110z" />
<glyph unicode="&#x2020;" horiz-adv-x="1064" d="M115 1298v119h344v473h149v-473h342v-119h-342v-1771h-149v1771h-344z" />
<glyph unicode="&#x2021;" horiz-adv-x="1064" d="M115 0v119h344v1179h-344v119h344v473h149v-473h342v-119h-342v-1179h342v-119h-342v-473h-149v473h-344z" />
<glyph unicode="&#x2022;" horiz-adv-x="696" d="M115 709q0 97 68 166t165 69t166.5 -69t69.5 -166t-69.5 -165.5t-166.5 -68.5t-165 68.5t-68 165.5z" />
<glyph unicode="&#x2026;" horiz-adv-x="1300" d="M115 80q0 40 28 68t68 28t68 -28t28 -68t-28 -68t-68 -28t-68 28t-28 68zM555 80q0 40 28 68t68 28t67 -28t27 -68t-27 -68t-67 -28t-68 28t-28 68zM995 80q0 40 28.5 68t68.5 28t67 -28t27 -68t-27 -68t-67 -28t-68.5 28t-28.5 68z" />
<glyph unicode="&#x202f;" horiz-adv-x="450" />
<glyph unicode="&#x2030;" horiz-adv-x="2349" d="M115 1024q0 185 82.5 297.5t220.5 112.5t221.5 -112.5t83.5 -297.5t-83.5 -297.5t-221.5 -112.5t-220.5 112.5t-82.5 297.5zM219 1024q0 -147 53.5 -233t145.5 -86t146 86.5t54 232.5t-54 232.5t-146 86.5t-145.5 -86t-53.5 -233zM403 0l701 1417h137l-700 -1417h-138z M926 393q0 185 83.5 297.5t221.5 112.5t221.5 -112.5t83.5 -297.5t-83.5 -297t-221.5 -112t-221.5 112t-83.5 297zM1032 393q0 -147 53.5 -233t145.5 -86t146.5 86.5t54.5 232.5q0 147 -54.5 234.5t-146.5 87.5t-145.5 -87.5t-53.5 -234.5zM1628 393q0 185 83.5 297.5 t221.5 112.5t221.5 -112.5t83.5 -297.5t-83.5 -297t-221.5 -112t-221.5 112t-83.5 297zM1735 393q0 -147 53 -233t145 -86t146.5 86.5t54.5 232.5q0 147 -54.5 234.5t-146.5 87.5t-145 -87.5t-53 -234.5z" />
<glyph unicode="&#x2039;" horiz-adv-x="774" d="M113 551l381 551h172l-379 -551l379 -551h-172z" />
<glyph unicode="&#x203a;" horiz-adv-x="774" d="M113 0l379 551l-379 551h172l381 -551l-381 -551h-172z" />
<glyph unicode="&#x205f;" horiz-adv-x="562" />
<glyph unicode="&#x20ac;" horiz-adv-x="1368" d="M33 539v77h130q-3 45 -3 93q0 47 3 92h-130v78h139q39 256 188.5 405.5t372.5 149.5q192 0 330 -112.5t194 -307.5h-163q-48 135 -140.5 208.5t-218.5 73.5q-157 0 -262.5 -110.5t-137.5 -306.5h443v-78h-453q-3 -45 -3 -92q0 -48 3 -93h453v-77h-443 q32 -195 137.5 -305.5t262.5 -110.5q127 0 219 73t140 207h163q-56 -195 -194 -307t-330 -112q-223 0 -372.5 149.5t-188.5 405.5h-139z" />
<glyph unicode="&#x2212;" horiz-adv-x="1114" d="M115 649v121h886v-121h-886z" />
<glyph unicode="&#x25fc;" horiz-adv-x="1100" d="M0 0v1100h1100v-1100h-1100z" />
<glyph unicode="&#xf700;" horiz-adv-x="1175" d="M115 631h174l214 -508h91q81 0 142 40.5t97.5 112.5t54 162t17.5 197q0 151 -37.5 264.5t-114.5 179.5t-186 66q-98 0 -177 -64t-120 -196h-155q45 183 163.5 287t290.5 104q162 0 276 -88q89 50 89 168h125q0 -159 -148 -232q148 -172 148 -489q0 -193 -52.5 -336.5 t-158 -225t-254.5 -81.5h-203z" />
<glyph unicode="&#xf701;" d="M-1085 1468v119h651v-119h-651z" />
<glyph unicode="&#xf702;" d="M-1087 1468v119h518v178h131v-297h-649z" />
<glyph unicode="&#xf703;" d="M-1061 1466v123h353q-3 13 -3 29q0 61 44 105t106 44q61 0 105 -43.5t44 -105.5t-44 -107t-105 -45h-500zM-625 1618q0 -27 18.5 -46.5t45.5 -19.5q26 0 43.5 19.5t17.5 46.5q0 26 -17.5 44.5t-43.5 18.5q-27 0 -45.5 -18.5t-18.5 -44.5z" />
<glyph unicode="&#xf704;" d="M-1085 1468v119h307v178h96v-178h115v178h133v-297h-651z" />
<glyph unicode="&#xf705;" d="M-621 1468v359h156v-359h-156z" />
<glyph unicode="&#xf706;" d="M-922 1655v121h181q30 0 48.5 -20.5t18.5 -47.5v-121h375v-119h-518v156q0 12 -9 21.5t-22 9.5h-74z" />
<glyph unicode="&#xf707;" d="M-1016 1466v220q0 67 42.5 107t113.5 40l90 -111l88 111q71 0 113.5 -40t42.5 -107v-117h22q20 0 32.5 14t12.5 37v197h107v-236q0 -48 -34 -81.5t-83 -33.5h-168v207q0 41 -27 58l-69 -86h-76l-71 86q-29 -17 -29 -58v-207h-107z" />
<glyph unicode="&#xf708;" d="M-854 1585v121h143v121h156v-121h143v-121h-143v-117h-156v117h-143z" />
<glyph unicode="&#xf709;" d="M-864 1468v191q0 53 32 85t87 32h438v-121h-355q-51 0 -51 -51v-136h-151z" />
<glyph unicode="&#xf70a;" d="M-315 1468v359h155v-359h-155z" />
<glyph unicode="&#xf70b;" d="M-653 1655v121h202q30 0 50 -20.5t20 -47.5v-121h344v-119h-489v156q0 12 -9 21.5t-22 9.5h-96z" />
<glyph unicode="&#xf70c;" d="M-729 1466v220q0 68 40.5 107.5t110.5 39.5l98 -110l93 110q71 0 112.5 -40t41.5 -107v-109h65q53 0 53 51v189h109v-236q0 -50 -32 -82.5t-81 -32.5h-225v213q0 37 -24 54l-76 -86h-74l-76 88q-29 -17 -29 -56v-213h-106z" />
<glyph unicode="&#xf70d;" d="M-455 1583v129h148v115h155v-115h148v-129h-148v-115h-155v115h-148z" />
<glyph unicode="&#xf70e;" d="M-547 1468v191q0 53 31 85t86 32h381v-121h-291q-51 0 -51 -51v-136h-156z" />
<glyph unicode="&#xf70f;" horiz-adv-x="1753" d="M96 993q6 12 18.5 31t56.5 67.5t95 86t134 68t173 30.5q213 0 324 -97t111 -266v-598q0 -100 59.5 -149t157.5 -49t157.5 49t59.5 149v945h153v-945q0 -160 -102 -245.5t-268 -85.5q-167 0 -270 85.5t-103 245.5v598q0 232 -279 232q-169 0 -319 -154l61 -92v-704 q0 -64 64 -64h63v-131h-110q-83 0 -127.5 41t-44.5 123v733z" />
<glyph unicode="&#xf710;" d="M-836 1585v152h150v-99q0 -51 51 -51h463v-119h-547q-55 0 -86 32t-31 85z" />
<glyph unicode="&#xf711;" d="M-670 1618q0 62 42.5 105.5t103.5 43.5q62 0 106.5 -44t44.5 -105t-44.5 -105.5t-106.5 -44.5q-61 0 -103.5 44t-42.5 106zM-588 1618q0 -26 19 -44t45 -18t43.5 18t17.5 44t-17.5 43.5t-43.5 17.5q-27 0 -45.5 -17.5t-18.5 -43.5z" />
<glyph unicode="&#xf712;" d="M-1004 1661q0 84 46.5 139t115.5 55h420v-94h-377q-44 0 -69 -27t-25 -73q0 -34 17.5 -60.5t50.5 -35.5l86 94h71l88 -97q58 14 58 70v76h100v-88q0 -74 -48 -117t-128 -43l-105 121l-104 -121q-83 0 -140 54t-57 147z" />
<glyph unicode="&#xf713;" d="M-563 1894v355h131v-355h-131z" />
<glyph unicode="&#xf714;" d="M-834 2083v121h203q30 0 50 -21.5t20 -48.5v-121h350v-121h-483v158q0 13 -9 23t-22 10h-109z" />
<glyph unicode="&#xf715;" d="M-870 1892v199q0 68 37.5 107.5t107.5 39.5l80 -105l78 105q70 0 107.5 -39.5t37.5 -107.5v-100h14q22 0 39 16t17 37v180h102v-215q0 -49 -34 -83t-83 -34h-157v199q0 38 -20 56l-60 -95h-84l-61 96q-21 -18 -21 -57v-199h-100z" />
<glyph unicode="&#xf716;" d="M-672 2011v119h113v117h133v-117h113v-119h-113v-119h-133v119h-113z" />
<glyph unicode="&#xf717;" d="M-715 1774v159q0 53 32 86t87 33h350v-119h-284q-52 0 -52 -51v-108h-133z" />
<glyph unicode="&#xf718;" d="M-426 -651h152q53 0 84.5 -32.5t31.5 -86.5v-410h-131v357q0 51 -51 51h-86v121z" />
<glyph unicode="&#xf719;" d="M-750 -651h148q52 0 85.5 -32.5t33.5 -86.5v-295h125q35 0 53 18.5t18 51.5v344h131v-391q0 -61 -37.5 -98.5t-99.5 -37.5h-321v355q0 51 -50 51h-86v121z" />
<glyph unicode="&#xf71a;" d="M-342 -715q0 38 27 66t65 28t65 -28t27 -66t-27 -65t-65 -27t-65 27t-27 65z" />
<glyph unicode="&#xf71d;" horiz-adv-x="1282" d="M20 1260h154l201 -1016l211 1016h110l211 -1016l152 764q2 16 2 21q0 34 -21 53.5t-59 19.5h-158v80h203q28 0 50 17.5t28 45.5l10 45h154l-15 -73q-7 -34 -30.5 -54t-43.5 -23l-20 -3q7 -1 17.5 -4t27.5 -20t17 -42q0 -13 -2 -20l-213 -1051h-158l-207 969l-205 -969 h-160z" />
<glyph horiz-adv-x="813" d="M-666 1618q0 62 43.5 105.5t104.5 43.5q62 0 106.5 -44t44.5 -105t-44.5 -105.5t-106.5 -44.5q-61 0 -104.5 44t-43.5 106zM-582 1618q0 -26 19 -44t45 -18t43.5 18t17.5 44t-17.5 43.5t-43.5 17.5q-27 0 -45.5 -17.5t-18.5 -43.5zM31 1061v137q5 3 14.5 8.5t41 19 t65.5 23.5t87 18.5t107 8.5q155 0 242.5 -73t87.5 -212v-991h-158v944q0 99 -55.5 150t-153.5 51q-69 0 -138.5 -21t-104.5 -42z" />
<glyph d="M-881 1468v125q0 48 29 79.5t78 31.5h129v76q0 48 29.5 78t78.5 30h234v-106h-172q-51 0 -51 -49v-136h-179q-51 0 -51 -49v-80h-125z" />
<glyph horiz-adv-x="1286" d="M160 0v1417h925v-125l-247 -421q148 -24 240.5 -147t92.5 -286q0 -119 -50 -218.5t-142 -159.5t-207 -60h-110v137h83q120 0 192.5 88t72.5 213q0 126 -72 212.5t-193 86.5h-88v140l244 403h-579v-1280h-162z" />
<glyph d="M-358 2044q0 62 42 105.5t103 43.5q62 0 107 -44t45 -105t-45 -105.5t-107 -44.5q-61 0 -103 44t-42 106zM-274 2044q0 -26 17.5 -44t43.5 -18t43.5 18t17.5 44t-17.5 43.5t-43.5 17.5t-43.5 -17.5t-17.5 -43.5z" />
<glyph d="M-670 2044q0 62 42.5 105.5t103.5 43.5q62 0 106.5 -44t44.5 -105t-44.5 -105.5t-106.5 -44.5q-61 0 -103.5 44t-42.5 106zM-588 2044q0 -26 19 -44t45 -18t43.5 18t17.5 44t-17.5 43.5t-43.5 17.5q-27 0 -45.5 -17.5t-18.5 -43.5z" />
</font>
</defs>
</svg>
